<?xml version="1.0" standalone="no"?>
<!DOCTYPE svg PUBLIC "-//W3C//DTD SVG 20010904//EN"
 "http://www.w3.org/TR/2001/REC-SVG-20010904/DTD/svg10.dtd">
<svg version="1.0" xmlns="http://www.w3.org/2000/svg"
 width="696.000000pt" height="696.000000pt" viewBox="0 0 696.000000 696.000000"
 preserveAspectRatio="xMidYMid meet">
<metadata>
Created by potrace 1.14, written by Peter Selinger 2001-2017
</metadata>
<g transform="translate(0.000000,696.000000) scale(0.100000,-0.100000)"
fill="#000000" stroke="none">
<path d="M4516 6949 c-40 -10 -135 -57 -195 -96 -18 -13 -37 -21 -41 -18 -5 3
-10 1 -12 -3 -1 -5 -136 -82 -298 -172 -162 -89 -315 -174 -340 -188 -25 -14
-115 -63 -200 -110 -85 -47 -165 -91 -177 -99 -13 -7 -26 -14 -30 -14 -5 -1
-20 -10 -35 -20 -14 -10 -29 -19 -32 -19 -14 0 -124 -86 -171 -134 -97 -98
-152 -193 -185 -323 -29 -115 -30 -339 -1 -415 5 -13 9 -27 10 -33 4 -23 23
-89 33 -110 7 -16 33 -33 77 -50 36 -15 80 -33 96 -40 83 -37 204 -89 335
-145 80 -34 159 -68 175 -75 48 -22 110 -48 115 -50 3 0 27 -11 54 -23 27 -12
50 -22 52 -22 2 0 27 -11 56 -24 29 -13 118 -51 198 -85 80 -34 166 -71 192
-83 55 -25 90 -19 106 17 14 30 15 28 -118 265 -50 88 -90 163 -90 167 1 5 76
64 168 133 92 69 171 129 177 133 5 4 35 26 65 48 30 22 62 45 70 52 48 38
292 208 491 342 90 61 166 113 169 116 3 3 12 8 20 12 8 4 56 32 105 64 189
119 503 284 569 298 57 12 84 42 66 75 -8 14 -297 167 -330 175 -3 0 -75 35
-160 77 -165 80 -502 245 -660 321 -135 65 -220 80 -324 56z"/>
<path d="M6162 6104 c-45 -13 -135 -52 -200 -85 -64 -34 -135 -71 -157 -82
-22 -12 -43 -26 -47 -31 -4 -6 -8 -7 -8 -2 0 4 -10 1 -23 -7 -13 -8 -59 -34
-103 -57 -74 -40 -136 -73 -226 -123 -23 -12 -38 -28 -38 -39 0 -21 7 -24 65
-32 178 -24 314 -78 460 -181 87 -62 195 -170 255 -255 14 -19 28 -37 31 -40
25 -22 135 -226 190 -355 13 -31 57 -155 60 -173 1 -4 6 -18 11 -32 5 -14 11
-32 13 -40 2 -8 8 -35 15 -60 7 -25 14 -52 16 -60 2 -8 8 -35 15 -60 6 -25 12
-54 14 -65 11 -59 16 -88 29 -170 8 -49 18 -115 21 -145 3 -30 8 -68 10 -85 2
-16 7 -70 10 -120 4 -49 11 -97 16 -105 4 -8 9 -13 10 -10 2 12 8 82 13 165 3
50 8 122 11 160 3 39 7 106 10 150 2 44 7 109 10 145 3 36 7 108 10 160 3 52
7 133 10 180 5 83 8 133 21 385 4 66 7 239 8 385 1 292 -6 350 -57 484 -24 64
-41 90 -88 137 -33 33 -65 59 -72 59 -6 0 -24 6 -39 14 -44 23 -179 18 -276
-10z"/>
<path d="M2275 5776 c-278 -115 -408 -168 -412 -167 -3 0 -100 -41 -138 -59
-11 -5 -87 -37 -170 -70 -82 -34 -157 -65 -166 -70 -9 -4 -54 -24 -100 -43
-46 -19 -114 -49 -151 -66 -37 -17 -79 -33 -93 -37 -14 -3 -25 -10 -25 -15 0
-5 -3 -8 -8 -7 -12 3 -152 -59 -307 -137 -154 -78 -224 -125 -306 -205 -77
-76 -125 -167 -128 -243 -6 -140 94 -292 279 -426 41 -30 79 -58 85 -63 5 -5
98 -71 205 -148 107 -77 205 -149 217 -159 13 -11 23 -17 23 -14 0 3 9 -2 19
-11 15 -14 24 -15 39 -7 20 11 20 12 2 70 -9 32 -20 64 -24 69 -3 6 -8 23 -10
39 -3 15 -8 51 -12 78 -18 118 -8 277 26 405 25 96 112 300 132 308 4 2 8 8 8
13 0 16 77 127 156 224 93 115 274 291 384 375 18 14 38 30 44 35 45 41 297
212 419 284 152 89 156 107 12 47z"/>
<path d="M288 4113 c-14 -16 -15 -99 -13 -708 2 -379 5 -700 8 -711 22 -91 51
-148 105 -203 15 -16 104 -81 197 -146 94 -65 182 -128 196 -139 14 -12 35
-27 45 -34 25 -17 74 -49 99 -64 11 -7 22 -16 25 -19 3 -3 43 -32 90 -64 85
-59 164 -116 187 -135 7 -5 15 -10 18 -10 5 0 105 -69 115 -80 3 -3 14 -11 25
-18 71 -44 83 -53 146 -104 12 -10 26 -18 30 -18 4 0 14 -6 21 -13 43 -41 166
-106 256 -136 83 -27 272 -48 272 -30 0 3 10 4 23 2 31 -6 189 42 262 79 76
38 169 104 241 171 l56 51 -7 151 c-3 82 -8 193 -10 245 -2 52 -6 138 -9 190
-6 107 -15 280 -21 415 -3 50 -7 135 -10 190 -2 55 -7 146 -9 201 -3 56 -8
112 -11 125 -7 29 -44 48 -72 38 -11 -4 -75 -88 -143 -186 -67 -98 -126 -182
-130 -186 -7 -8 -374 171 -482 234 -26 16 -48 26 -48 23 0 -4 -6 -2 -12 4 -15
12 -57 35 -158 88 -41 21 -81 44 -88 51 -7 7 -17 13 -22 13 -7 0 -141 73 -220
120 -135 81 -220 130 -225 130 -3 0 -11 5 -18 10 -7 6 -81 54 -164 108 -84 53
-160 104 -170 112 -10 9 -35 26 -55 39 -21 12 -38 27 -38 32 0 5 -5 9 -11 9
-13 0 -119 88 -183 152 -42 42 -65 47 -88 21z"/>
<path d="M5604 3597 c-23 -18 -51 -39 -64 -47 -12 -8 -130 -94 -263 -190 -133
-96 -253 -183 -267 -192 -61 -42 -247 -177 -262 -192 -10 -9 -20 -16 -23 -16
-3 0 -11 -5 -18 -10 -7 -6 -41 -32 -77 -57 -199 -143 -209 -151 -208 -184 2
-51 24 -58 209 -62 92 -2 171 -7 177 -11 6 -3 13 -3 16 2 2 4 23 6 45 4 38 -4
56 -22 49 -48 -1 -5 1 -27 5 -49 4 -22 9 -65 11 -95 3 -30 8 -71 10 -90 6 -35
13 -115 21 -225 3 -33 7 -76 10 -95 3 -19 7 -69 10 -110 3 -41 7 -100 10 -130
9 -96 25 -350 30 -490 5 -116 5 -517 0 -590 -8 -134 -17 -205 -36 -288 -11
-52 1 -82 35 -82 18 0 242 136 291 177 6 4 22 14 38 22 15 8 27 18 27 23 0 5
5 6 10 3 6 -3 10 -1 10 4 0 6 4 11 9 11 5 0 56 31 113 69 188 126 380 251 385
251 2 0 9 5 16 10 7 6 74 52 151 102 153 101 200 150 236 245 24 63 25 76 35
368 3 110 8 252 11 315 2 63 6 169 8 235 3 66 8 210 12 320 9 259 9 395 0 472
-10 81 -56 210 -95 268 -17 25 -31 50 -31 54 0 11 -118 129 -149 149 -14 9
-30 22 -34 29 -4 7 -12 13 -18 13 -5 0 -26 10 -47 23 -37 23 -153 75 -182 83
-8 2 -40 10 -70 18 -77 22 -99 19 -146 -17z"/>
<path d="M4747 1193 c-18 -21 -61 -67 -97 -103 -104 -104 -144 -132 -270 -192
-52 -25 -108 -49 -125 -53 -16 -5 -34 -10 -40 -11 -24 -8 -153 -35 -190 -41
-78 -11 -321 -9 -410 4 -141 20 -217 35 -289 54 -23 6 -48 12 -56 14 -22 4
-152 45 -175 55 -11 5 -38 14 -60 21 -22 6 -44 14 -50 18 -5 3 -14 6 -20 7
-13 2 -175 69 -250 104 -33 15 -63 27 -66 26 -4 -1 -15 7 -25 16 -11 9 -23 17
-29 18 -5 1 -36 15 -67 30 -32 16 -60 25 -62 21 -6 -8 47 -51 63 -51 5 0 11
-4 13 -8 3 -7 101 -79 147 -107 9 -5 18 -12 21 -15 13 -14 273 -190 280 -190
5 0 10 -4 12 -8 2 -4 66 -51 143 -103 77 -51 142 -96 145 -99 22 -25 711 -470
726 -470 3 0 18 -9 32 -19 15 -10 30 -19 34 -20 5 -1 32 -12 62 -25 97 -43
167 -59 261 -60 79 -1 97 2 150 27 105 49 175 163 210 337 11 58 17 136 30
440 2 47 7 141 11 210 10 197 10 196 -12 204 -10 4 -26 -7 -47 -31z"/>
</g>
</svg>
