<?xml version="1.0" encoding="iso-8859-1"?>
<!-- Generator: Adobe Illustrator 19.1.0, SVG Export Plug-In . SVG Version: 6.00 Build 0)  -->
<svg version="1.1" id="iOS_community_72_lt-ou"
	 xmlns="http://www.w3.org/2000/svg" xmlns:xlink="http://www.w3.org/1999/xlink" x="0px" y="0px"  width="72" height="72"
	 viewBox="0 0 72 72"
	 enable-background="new 0 0 72 72" xml:space="preserve">
<path fill="#4B4B4B" d="M63,26c2.2056,0,4,1.7944,4,4v18c0,2.2056-1.7944,4-4,4h-2.25C59.2336,52,58,53.2336,58,54.75v7.9216
	l-9.2073-9.2075C47.8483,52.52,46.5927,52,45.2574,52H33c-2.2056,0-4-1.7944-4-4v-1.5V39v-3v-6c0-2.2056,1.7944-4,4-4H63 M63,24H33
	c-3.3138,0-6,2.6862-6,6v6v3v7.5V48c0,3.3135,2.6862,6,6,6h12.2574c0.7957,0,1.5587,0.316,2.1214,0.8785l11.3409,11.3412
	c0.1528,0.1527,0.3406,0.2211,0.5249,0.2211c0.3856,0,0.7555-0.2994,0.7555-0.7514V54.75c0-0.4142,0.3358-0.75,0.75-0.75H63
	c3.3138,0,6-2.6865,6-6V30C69,26.6862,66.3138,24,63,24L63,24z"/>
<path fill="#4B4B4B" d="M25,39v-2.3286l-0.4142,0.4142L14,47.6716V39.75c0-1.5164-1.2336-2.75-2.75-2.75H7.5
	C6.1215,37,5,35.8785,5,34.5v-21C5,12.1215,6.1215,11,7.5,11h33c1.3785,0,2.5,1.1215,2.5,2.5V21v1h2v-1v-7.5
	c0-2.4851-2.0147-4.5-4.5-4.5h-33C5.0147,9,3,11.0149,3,13.5v21C3,36.9851,5.0147,39,7.5,39h3.75c0.4142,0,0.75,0.3358,0.75,0.75
	v10.9395c0,0.452,0.3699,0.7514,0.7555,0.7514c0.1843,0,0.3721-0.0684,0.5249-0.2211L25,39.4998V39z"/>
</svg>
