<?xml version="1.0" encoding="UTF-8"?>
<svg id="Layer_2" data-name="Layer 2" xmlns="http://www.w3.org/2000/svg" viewBox="0 0 581.34 146.4">
  <defs>
    <style>
      .cls-1 {
        fill: #d9ff06;
      }

      .cls-1, .cls-2 {
        stroke-width: 0px;
      }

      .cls-2 {
        fill: #fff;
      }
    </style>
  </defs>
  <g id="Layer_1-2" data-name="Layer 1">
    <g>
      <path class="cls-2" d="m65.47,103.97v8.85c0,4.43-.83,8.62-2.48,12.57-1.66,3.96-3.94,7.48-6.85,10.56-2.91,3.09-6.31,5.53-10.22,7.34-3.9,1.81-8.1,2.72-12.6,2.72-3.84,0-7.74-.54-11.71-1.61-3.97-1.08-7.54-2.95-10.71-5.63-3.18-2.68-5.78-6.14-7.84-10.36-2.05-4.23-3.07-9.62-3.07-16.19V33.38c0-4.69.8-9.05,2.38-13.07,1.58-4.02,3.83-7.51,6.74-10.46,2.91-2.95,6.38-5.26,10.41-6.94C23.57,1.25,28.04.41,32.93.41c9.53,0,17.26,3.15,23.22,9.45,2.91,3.09,5.2,6.74,6.85,10.96,1.66,4.23,2.48,8.82,2.48,13.77v8.04h-20.24v-6.84c0-4.02-1.13-7.51-3.37-10.45-2.25-2.95-5.29-4.43-9.13-4.43-5.03,0-8.37,1.58-10.01,4.73-1.66,3.15-2.48,7.14-2.48,11.96v73.21c0,4.16.89,7.65,2.67,10.46,1.79,2.81,4.99,4.22,9.62,4.22,1.32,0,2.74-.23,4.27-.71,1.52-.47,2.94-1.24,4.27-2.31,1.19-1.08,2.18-2.54,2.97-4.43.8-1.88,1.19-4.23,1.19-7.04v-7.04h20.25Z"/>
      <path class="cls-2" d="m97.01,111.02c0,4.97,1.36,8.62,4.07,10.96,2.71,2.34,5.92,3.52,9.62,3.52s6.91-1.18,9.62-3.52c2.71-2.34,4.07-6,4.07-10.96V35.39c0-4.96-1.36-8.62-4.07-10.96-2.71-2.34-5.92-3.52-9.62-3.52s-6.91,1.18-9.62,3.52c-2.71,2.34-4.07,6-4.07,10.96v75.61h0Zm-20.24-75.61c0-5.76,1-10.86,2.97-15.28,1.98-4.43,4.63-8.11,7.94-11.06,3.17-2.81,6.77-4.96,10.81-6.43,4.03-1.47,8.1-2.21,12.2-2.21s8.17.74,12.2,2.21c4.03,1.47,7.71,3.62,11.02,6.43,3.17,2.95,5.76,6.64,7.74,11.06,1.98,4.43,2.97,9.52,2.97,15.28v75.61c0,6.03-1,11.2-2.97,15.49-1.98,4.29-4.56,7.84-7.74,10.65-3.31,2.95-6.98,5.16-11.02,6.64-4.03,1.47-8.1,2.21-12.2,2.21s-8.17-.74-12.2-2.21c-4.04-1.47-7.64-3.68-10.81-6.64-3.31-2.81-5.95-6.36-7.94-10.65-1.98-4.3-2.97-9.45-2.97-15.49V35.39h0Z"/>
      <path class="cls-2" d="m178.76,20.91v48.68h9.72c4.1,0,7.27-.6,9.52-1.81,2.25-1.21,3.9-2.88,4.96-5.03,1.06-2.01,1.69-4.49,1.88-7.45.2-2.95.3-6.23.3-9.85,0-3.35-.07-6.53-.2-9.55-.13-3.01-.73-5.66-1.79-7.94-1.06-2.28-2.65-4.02-4.76-5.23-2.11-1.21-5.16-1.81-9.13-1.81h-10.52,0Zm-20.24,123.89V1.61h30.35c5.55,0,10.44.74,14.68,2.21,4.23,1.47,8.07,4.1,11.51,7.85,3.44,3.76,5.82,8.15,7.14,13.17,1.32,5.03,1.98,11.84,1.98,20.41,0,6.43-.36,11.87-1.09,16.29-.73,4.43-2.28,8.58-4.67,12.47-2.78,4.69-6.48,8.35-11.11,10.95-4.64,2.62-10.71,3.93-18.25,3.93h-10.32v55.91h-20.24.01Z"/>
      <path class="cls-1" d="m233.74,144.8v-6.23l32.93-81.85c3.37-8.45,7.14-18.71,7.14-31.57s-6.74-18.31-15.27-18.31-15.28,6.03-15.28,18.31v10.45h-7.54v-10.45c0-8.85,2.57-14.68,6.54-18.71,3.77-3.82,9.92-6.43,16.27-6.43s12.5,2.61,16.27,6.43c3.97,4.03,6.55,9.66,6.55,19.11,0,11.06-3.97,23.73-8.14,33.99l-31.55,78.44h39.68v6.84h-47.62,0Z"/>
      <path class="cls-1" d="m328.17,10.86c-2.58-2.61-5.95-4.02-9.92-4.02s-7.34,1.41-9.92,4.02c-3.37,3.82-5.16,9.45-5.16,24.74s1.58,20.91,5.36,24.94c2.38,2.62,5.76,3.82,9.72,3.82s7.34-1.21,9.72-3.82c3.77-4.02,5.35-9.65,5.35-24.94s-1.79-20.91-5.16-24.74m.6,64.76c-2.78-3.01-6.35-4.43-10.52-4.43s-7.74,1.41-10.51,4.43c-4.37,4.62-5.55,8.45-5.55,30.17,0,19.11,1.59,24.73,5.55,29.36,2.57,3.01,6.34,4.43,10.51,4.43s7.94-1.41,10.52-4.43c3.97-4.63,5.55-10.25,5.55-29.36,0-21.72-1.19-25.55-5.55-30.17Zm5.76,64.15c-3.57,3.82-9.92,6.64-16.27,6.64s-12.69-2.81-16.27-6.64c-5.76-6.23-7.34-12.87-7.34-33.99,0-22.53,1.39-26.35,5.35-31.78,1.79-2.41,4.56-4.62,7.74-6.23-3.18-1.61-6.15-4.22-7.94-7.24-2.78-4.62-4.17-9.45-4.17-24.94,0-18.1,1.98-24.53,6.95-29.56,3.77-3.82,9.32-6.03,15.67-6.03s11.9,2.21,15.67,6.03c4.96,5.03,6.94,11.46,6.94,29.56,0,15.49-1.39,20.31-4.16,24.94-1.79,3.02-4.77,5.63-7.93,7.24,3.17,1.61,5.95,3.82,7.74,6.23,3.97,5.43,5.36,9.25,5.36,31.78,0,21.11-1.59,27.76-7.34,33.99Z"/>
      <path class="cls-2" d="m427.98,1.61v111.02c0,4.7-.83,9.02-2.48,12.97-1.66,3.96-4,7.48-7.04,10.56-3.04,3.09-6.55,5.5-10.51,7.24-3.97,1.75-8.21,2.61-12.69,2.61s-8.7-.88-12.6-2.61c-3.9-1.74-7.37-4.16-10.41-7.24-3.04-3.08-5.42-6.6-7.14-10.56-1.72-3.95-2.58-8.27-2.58-12.97V1.61h20.24v109c0,5.1,1.19,8.85,3.57,11.26,2.37,2.42,5.35,3.62,8.93,3.62s6.55-1.21,8.93-3.62c2.38-2.41,3.58-6.17,3.58-11.26V1.61h20.24-.01Z"/>
      <path class="cls-2" d="m473.21,42.84h.4l9.92,51.88h-20.24l9.92-51.88Zm-8.14-41.23l-31.54,143.18h20.24l5.95-30.76h27.58l5.95,30.76h20.24L481.95,1.61h-16.87Z"/>
      <path class="cls-2" d="m521.02,1.61v143.18h60.31v-20.51h-40.08v-42.04h34.92v-19.31h-34.92V20.92h40.08V1.61h-60.31Z"/>
    </g>
  </g>
</svg>