<?xml version="1.0" encoding="UTF-8"?>
<svg id="Layer_2" data-name="Layer 2" xmlns="http://www.w3.org/2000/svg" viewBox="0 0 46.35 46.35">
  <defs>
    <style>
      .cls-1 {
        fill: none;
      }

      .cls-1, .cls-2 {
        stroke-width: 0px;
      }

      .cls-2 {
        fill: #fff;
      }
    </style>
  </defs>
  <g id="Layer_1-2" data-name="Layer 1">
    <circle class="cls-1" cx="23.17" cy="23.17" r="23.17"/>
    <path class="cls-2" d="m28.92,16.27c-.71,0-1.28.57-1.28,1.28s.57,1.28,1.28,1.28,1.28-.57,1.28-1.28-.57-1.28-1.28-1.28Zm-5.71,1.65c-2.97,0-5.39,2.42-5.39,5.39s2.42,5.39,5.39,5.39,5.39-2.42,5.39-5.39-2.42-5.39-5.39-5.39Zm0,8.85c-1.91,0-3.45-1.55-3.45-3.45s1.55-3.45,3.45-3.45,3.45,1.55,3.45,3.45-1.55,3.45-3.45,3.45Zm10.88-7.94c0-3.63-2.95-6.58-6.58-6.58h-8.68c-3.63,0-6.58,2.95-6.58,6.58v8.68c0,3.63,2.95,6.58,6.58,6.58h8.68c3.63,0,6.58-2.95,6.58-6.58v-8.68Zm-2.06,8.68c0,2.5-2.02,4.52-4.52,4.52h-8.68c-2.5,0-4.52-2.02-4.52-4.52v-8.68c0-2.5,2.02-4.52,4.52-4.52h8.68c2.5,0,4.52,2.02,4.52,4.52v8.68Z"/>
  </g>
</svg>