<?xml version="1.0" encoding="UTF-8"?>
<svg id="Layer_2" data-name="Layer 2" xmlns="http://www.w3.org/2000/svg" viewBox="0 0 46.35 46.35">
  <defs>
    <style>
      .cls-1 {
        fill: none;
      }

      .cls-1, .cls-2 {
        stroke-width: 0px;
      }

      .cls-2 {
        fill: #fff;
      }
    </style>
  </defs>
  <g id="Layer_1-2" data-name="Layer 1">
    <circle class="cls-1" cx="23.17" cy="23.17" r="23.17"/>
    <g>
      <path class="cls-2" d="m33.53,25.42v7.32c0,.18-.15.33-.33.33h-3.78c-.18,0-.33-.15-.33-.33v-6.81c0-1.79-.64-3.02-2.25-3.02-1.23,0-1.95.82-2.27,1.62-.12.29-.15.68-.15,1.08v7.12c0,.18-.15.33-.33.33h-3.78c-.18,0-.33-.15-.33-.33,0-1.81.05-10.61,0-12.68,0-.18.14-.33.33-.33h3.77c.18,0,.33.15.33.33v1.56s-.02.03-.03.04h.03v-.04c.59-.91,1.64-2.2,4-2.2,2.92,0,5.1,1.91,5.1,6h0Zm-20.09,7.65h3.78c.18,0,.33-.15.33-.33v-12.68c0-.18-.15-.33-.33-.33h-3.78c-.18,0-.33.15-.33.33v12.68c0,.18.15.33.33.33Z"/>
      <circle class="cls-2" cx="15.19" cy="15.66" r="2.37"/>
    </g>
  </g>
</svg>