<?xml version="1.0" encoding="UTF-8"?>
<svg xmlns="http://www.w3.org/2000/svg" xmlns:xlink="http://www.w3.org/1999/xlink" viewBox="0 0 457.42 356.84">
  <defs>
    <style>
      .cls-1, .cls-2, .cls-3, .cls-4, .cls-5, .cls-6, .cls-7, .cls-8, .cls-9, .cls-10, .cls-11, .cls-12, .cls-13, .cls-14, .cls-15, .cls-16, .cls-17, .cls-18, .cls-19, .cls-20, .cls-21, .cls-22, .cls-23, .cls-24, .cls-25, .cls-26, .cls-27, .cls-28, .cls-29, .cls-30, .cls-31, .cls-32, .cls-33, .cls-34 {
        stroke-width: 0px;
      }

      .cls-1, .cls-2, .cls-35 {
        mix-blend-mode: multiply;
      }

      .cls-1, .cls-31 {
        fill: #e5e5e5;
      }

      .cls-2, .cls-13 {
        fill: #d0d0d0;
      }

      .cls-3 {
        fill: #c1c1c1;
        mix-blend-mode: screen;
      }

      .cls-4 {
        fill: url(#linear-gradient);
      }

      .cls-5 {
        fill: url(#linear-gradient-4);
      }

      .cls-6 {
        fill: url(#linear-gradient-2);
      }

      .cls-7 {
        fill: url(#linear-gradient-3);
      }

      .cls-8 {
        fill: url(#linear-gradient-5);
      }

      .cls-9 {
        fill: url(#linear-gradient-6);
      }

      .cls-36 {
        isolation: isolate;
      }

      .cls-10 {
        fill: #50ba81;
      }

      .cls-11 {
        fill: #888;
      }

      .cls-12 {
        fill: #dedede;
      }

      .cls-14 {
        fill: #c9c9c9;
      }

      .cls-15 {
        fill: #adadad;
      }

      .cls-16 {
        fill: #dadada;
      }

      .cls-17 {
        fill: #d4d4d4;
      }

      .cls-18 {
        fill: #bbb;
      }

      .cls-19 {
        fill: #d8d9d9;
      }

      .cls-20 {
        fill: #d8d8d8;
      }

      .cls-21 {
        fill: #a5a7aa;
      }

      .cls-22 {
        fill: #cecece;
      }

      .cls-23 {
        fill: #b7b8b7;
      }

      .cls-24 {
        fill: #919396;
      }

      .cls-25 {
        fill: #7d7d7d;
      }

      .cls-26 {
        fill: #ececec;
      }

      .cls-27 {
        fill: #fff;
      }

      .cls-28 {
        fill: #e4e5e6;
      }

      .cls-29 {
        fill: #eff0f0;
      }

      .cls-30 {
        fill: #efefef;
      }

      .cls-32 {
        fill: #f0f0f0;
      }

      .cls-33 {
        fill: #f4f4f4;
      }

      .cls-34 {
        fill: #e9e9e9;
      }
    </style>
    <linearGradient id="linear-gradient" x1="5097.14" y1="-291.23" x2="5097.14" y2="-259.67" gradientTransform="translate(5040.71 -2198.98) rotate(150) scale(1 -1) skewX(-30)" gradientUnits="userSpaceOnUse">
      <stop offset=".21" stop-color="#fcfcfc"/>
      <stop offset=".46" stop-color="#f0f0f0"/>
      <stop offset=".9" stop-color="#d0d0d0"/>
      <stop offset="1" stop-color="#c9c9c9"/>
    </linearGradient>
    <linearGradient id="linear-gradient-2" x1="379.26" y1="189.45" x2="391.12" y2="189.45" gradientTransform="translate(736.88) rotate(-180) scale(1 -1)" gradientUnits="userSpaceOnUse">
      <stop offset="0" stop-color="#d4d4d4"/>
      <stop offset="1" stop-color="#adadad"/>
    </linearGradient>
    <linearGradient id="linear-gradient-3" x1="5130.62" y1="-276.21" x2="5130.62" y2="-244.65" xlink:href="#linear-gradient"/>
    <linearGradient id="linear-gradient-4" x1="393.24" y1="214.86" x2="405.1" y2="214.86" xlink:href="#linear-gradient-2"/>
    <linearGradient id="linear-gradient-5" x1="5126.17" y1="-320.43" x2="5126.17" y2="-275.12" xlink:href="#linear-gradient"/>
    <linearGradient id="linear-gradient-6" x1="423.91" y1="190.6" x2="440.93" y2="190.6" xlink:href="#linear-gradient-2"/>
  </defs>
  <g class="cls-36">
    <g id="Layer_2" data-name="Layer 2">
      <g id="Layer_1-2" data-name="Layer 1">
        <g>
          <path class="cls-29" d="m221.48,190.41l76.19-43.98c13.03-7.52,34.15-7.52,47.18,0l76.19,43.98c13.03,7.52,13.03,19.72,0,27.24l-76.19,43.98c-13.03,7.52-34.15,7.52-47.18,0l-76.19-43.98c-13.03-7.52-13.03-19.72,0-27.24Z"/>
          <path class="cls-29" d="m66.19,95.21l76.19-43.98c13.03-7.52,34.15-7.52,47.18,0l76.19,43.98c13.03,7.52,13.03,19.72,0,27.24l-76.19,43.98c-13.03,7.52-34.15,7.52-47.18,0l-76.19-43.98c-13.03-7.52-13.03-19.72,0-27.24Z"/>
          <path class="cls-10" d="m11.58,265.72l90.32-52.14c15.44-8.92,40.48-8.92,55.93,0l90.32,52.14c15.44,8.92,15.44,23.37,0,32.29l-90.32,52.14c-15.44,8.92-40.48,8.92-55.93,0l-90.32-52.14c-15.44-8.92-15.44-23.37,0-32.29Z"/>
          <path class="cls-29" d="m285.85,40.68l62.45-36.05c10.68-6.16,27.99-6.16,38.67,0l62.45,36.05c10.68,6.16,10.68,16.16,0,22.32l-62.45,36.05c-10.68,6.16-27.99,6.16-38.67,0l-62.45-36.05c-10.68-6.16-10.68-16.16,0-22.32Z"/>
        </g>
        <g>
          <g>
            <g>
              <path class="cls-15" d="m337.26,198.14l-.81-.82s-.14-.07-.22-.07l-3.57.03c-.45-.68-.77-1.37-.96-2.08l3.12-1.01c.07-.02.13-.08.13-.13v-.91s-.06-.1-.13-.13l-3.12-1c.19-.71.51-1.4.95-2.08l3.57.02c.08,0,.18-.03.22-.07l.83-.83s.04-.11,0-.15l-1.83-1.77c.39-.28.8-.54,1.25-.8.44-.26.91-.5,1.39-.72l3.07,1.06c.07.02.18.02.25,0l1.44-.48c.07-.02.12-.08.12-.13l-.04-2.06c1.17-.26,2.38-.44,3.6-.55l1.74,1.8s.14.07.22.07h1.58c.08,0,.18-.03.22-.07l1.74-1.8c1.22.11,2.43.3,3.6.55l-.05,2.06s.06.1.12.13l1.42.47c.07.02.18.02.25,0l3.07-1.06c.48.22.94.46,1.39.72.44.26.86.52,1.25.8l-1.83,1.77s-.04.11,0,.15l.82.82s.14.07.22.07l3.57-.03c.45.68.77,1.37.96,2.08l-3.12,1.01c-.07.02-.13.08-.13.13v.91s.06.1.13.12l3.12,1c-.19.71-.51,1.4-.95,2.08l-3.57-.02c-.08,0-.18.03-.22.07l-.83.83s-.04.11,0,.14l1.83,1.77c-.39.28-.8.54-1.25.8-.44.26-.91.5-1.39.72l-3.07-1.06c-.07-.02-.18-.02-.25,0l-1.44.48c-.07.02-.13.08-.13.13l.04,2.06c-1.17.26-2.38.44-3.6.55l-1.74-1.8s-.14-.07-.22-.07h-1.58c-.08,0-.18.03-.22.07l-1.74,1.8c-1.22-.11-2.43-.3-3.6-.55l.05-2.06s-.06-.1-.12-.13l-1.42-.47c-.07-.02-.18-.02-.25,0l-3.07,1.06c-.48-.22-.94-.46-1.39-.72-.44-.26-.86-.52-1.25-.8l1.83-1.77s.04-.11,0-.15Z"/>
              <polygon class="cls-18" points="336.23 197.31 332.65 197.28 332.65 193.12 336.23 193.15 336.23 197.31"/>
              <polygon class="cls-24" points="365.83 197.26 362.26 197.24 362.26 193.08 365.83 193.11 365.83 197.26"/>
              <polygon class="cls-23" points="366.78 192.02 363.21 191.99 363.21 187.83 366.78 187.86 366.78 192.02"/>
              <polygon class="cls-23" points="363.12 187.18 359.55 187.16 359.55 183 363.12 183.02 363.12 187.18"/>
              <polygon class="cls-24" points="360.41 201.58 357.34 200.53 357.34 196.37 360.41 197.42 360.41 201.58"/>
              <polygon class="cls-24" points="351.97 203.74 350.23 201.94 350.23 197.78 351.97 199.58 351.97 203.74"/>
              <polygon class="cls-18" points="346.48 203.74 348.22 201.94 348.22 197.78 346.48 199.58 346.48 203.74"/>
              <polygon class="cls-17" points="338.06 201.58 341.13 200.53 341.13 196.37 338.06 197.42 338.06 201.58"/>
              <polygon class="cls-17" points="351.97 203.74 355.57 203.19 355.57 199.03 351.97 199.58 351.97 203.74"/>
              <polygon class="cls-24" points="335.43 200.06 338.06 201.58 338.06 197.42 335.43 195.9 335.43 200.06"/>
              <polygon class="cls-17" points="342.88 203.19 346.48 203.74 346.48 199.58 342.88 199.03 342.88 203.19"/>
              <polygon class="cls-17" points="360.41 201.58 363.05 200.06 363.05 195.9 360.41 197.42 360.41 201.58"/>
              <path class="cls-23" d="m365.83,197.26s.66-.91.95-2.08v-4.16s-.95,2.08-.95,2.08v4.16Z"/>
              <polygon class="cls-22" points="346.48 184.05 342.91 184.03 342.91 179.87 346.48 179.89 346.48 184.05"/>
              <polygon class="cls-17" points="339 187.18 335.43 187.16 335.43 183 339 183.02 339 187.18"/>
              <polygon class="cls-17" points="335.26 192.06 331.69 192.04 331.69 187.88 335.26 187.9 335.26 192.06"/>
              <path class="cls-4" d="m337.26,193.99l-.81-.82s-.14-.07-.22-.07l-3.57.03c-.45-.68-.77-1.37-.96-2.08l3.12-1.01c.07-.02.13-.08.13-.13v-.91s-.06-.1-.13-.12l-3.12-1c.19-.71.51-1.4.95-2.08l3.57.02c.08,0,.18-.03.22-.07l.83-.83s.04-.11,0-.15l-1.83-1.77c.39-.28.8-.54,1.25-.8.44-.26.91-.5,1.39-.72l3.07,1.06c.07.02.18.02.25,0l1.44-.48c.07-.02.12-.08.12-.13l-.04-2.06c1.17-.26,2.38-.44,3.6-.55l1.74,1.8s.14.07.22.07h1.58c.08,0,.18-.03.22-.07l1.74-1.8c1.22.11,2.43.3,3.6.55l-.05,2.06s.06.1.12.13l1.42.47c.07.02.18.02.25,0l3.07-1.06c.48.22.94.46,1.39.72.44.26.86.52,1.25.8l-1.83,1.77s-.04.11,0,.15l.82.82s.14.07.22.07l3.57-.03c.45.68.77,1.37.96,2.08l-3.12,1.01c-.07.02-.13.08-.13.12v.91s.06.1.13.12l3.12,1c-.19.71-.51,1.4-.95,2.08l-3.57-.02c-.08,0-.18.03-.22.07l-.83.83s-.04.11,0,.14l1.83,1.77c-.39.28-.8.54-1.25.8-.44.26-.91.5-1.39.72l-3.07-1.06c-.07-.02-.18-.02-.25,0l-1.44.48c-.07.02-.13.08-.13.13l.04,2.06c-1.17.26-2.38.44-3.6.55l-1.74-1.8s-.14-.07-.22-.07h-1.58c-.08,0-.18.03-.22.07l-1.74,1.8c-1.22-.11-2.43-.3-3.6-.55l.05-2.06s-.06-.1-.12-.13l-1.42-.47c-.07-.02-.18-.02-.25,0l-3.07,1.06c-.48-.22-.94-.46-1.39-.72-.44-.26-.86-.52-1.25-.8l1.83-1.77s.04-.11,0-.15Z"/>
              <polygon class="cls-24" points="331.69 195.2 332.65 197.28 332.65 193.12 331.69 191.05 331.69 195.2"/>
            </g>
            <path class="cls-27" d="m342.8,196.84c.07.02.12.08.12.13l-.05,2.06c1.17.26,2.38.44,3.6.55l1.74-1.8s.14-.07.22-.07h1.58c.08,0,.18.03.22.07l1.74,1.8c1.22-.11,2.43-.29,3.6-.55l-.04-2.06s.06-.1.13-.13l1.44-.48c.07-.02.18-.02.25,0l3.07,1.06c.48-.22.94-.46,1.39-.72.44-.26.86-.52,1.25-.8l-1.83-1.77s-.04-.1,0-.14l.83-.83s.14-.07.22-.07l3.57.02c.45-.68.76-1.37.95-2.08l-3.12-1c-.07-.02-.13-.08-.13-.12v-.91s.06-.1.13-.12l3.12-1.01c-.19-.71-.51-1.4-.96-2.08l-3.57.03c-.08,0-.18-.03-.22-.07l-.82-.82s-.04-.11,0-.15l1.83-1.77c-.39-.28-.8-.54-1.25-.8-.44-.26-.91-.5-1.39-.72l-3.07,1.06c-.07.02-.18.02-.25,0l-1.42-.47c-.07-.02-.13-.08-.12-.13l.05-2.06c-1.17-.26-2.38-.44-3.6-.55l-1.74,1.8s-.14.07-.22.07h-1.58c-.08,0-.18-.03-.22-.07l-1.74-1.8c-1.22.11-2.43.29-3.6.55l.04,2.06s-.05.1-.12.13l-1.44.48c-.07.02-.18.02-.25,0l-3.07-1.06c-.48.22-.94.46-1.39.72-.44.26-.86.52-1.25.8l1.83,1.77s.04.11,0,.15l-.83.83s-.14.07-.22.07l-3.57-.02c-.45.68-.76,1.37-.95,2.08l3.12,1c.07.02.13.08.13.12v.91s-.06.1-.13.13l-3.12,1.01c.19.71.51,1.4.96,2.08l3.57-.03c.08,0,.18.03.22.07l.81.82s.04.11,0,.15l-1.83,1.77c.39.28.8.54,1.25.8.44.26.91.5,1.39.72l3.07-1.06c.07-.02.18-.02.25,0l1.42.47Z"/>
            <path class="cls-6" d="m355.26,192.93c3.33-1.92,3.33-5.04,0-6.96-3.33-1.92-8.72-1.92-12.05,0-3.33,1.92-3.33,5.04,0,6.96s8.72,1.92,12.05,0Z"/>
            <path class="cls-19" d="m343.21,190.13c3.33-1.92,8.72-1.92,12.05,0,.72.42,1.29.89,1.7,1.4-.41.51-.97.98-1.7,1.4-3.33,1.92-8.72,1.92-12.05,0-.72-.42-1.29-.89-1.7-1.4.41-.51.97-.98,1.7-1.4Z"/>
          </g>
          <g>
            <g>
              <path class="cls-15" d="m323.29,223.56l-.81-.82s-.14-.07-.22-.07l-3.57.03c-.45-.68-.77-1.37-.96-2.08l3.12-1.01c.07-.02.13-.08.13-.13v-.91s-.06-.1-.13-.13l-3.12-1c.19-.71.51-1.4.95-2.08l3.57.02c.08,0,.18-.03.22-.07l.83-.83s.04-.11,0-.15l-1.83-1.77c.39-.28.8-.54,1.25-.8.44-.26.91-.5,1.39-.72l3.07,1.06c.07.02.18.02.25,0l1.44-.48c.07-.02.12-.08.12-.13l-.04-2.06c1.17-.26,2.38-.44,3.6-.55l1.74,1.8s.14.07.22.07h1.58c.08,0,.18-.03.22-.07l1.74-1.8c1.22.11,2.43.3,3.6.55l-.05,2.06s.06.1.12.13l1.42.47c.07.02.18.02.25,0l3.07-1.06c.48.22.94.46,1.39.72.44.26.86.52,1.25.8l-1.83,1.77s-.04.11,0,.15l.82.82s.14.07.22.07l3.57-.03c.45.68.77,1.37.96,2.08l-3.12,1.01c-.07.02-.13.08-.13.13v.91s.06.1.13.12l3.12,1c-.19.71-.51,1.4-.95,2.08l-3.57-.02c-.08,0-.18.03-.22.07l-.83.83s-.04.11,0,.14l1.83,1.77c-.39.28-.8.54-1.25.8-.44.26-.91.5-1.39.72l-3.07-1.06c-.07-.02-.18-.02-.25,0l-1.44.48c-.07.02-.13.08-.13.13l.04,2.06c-1.17.26-2.38.44-3.6.55l-1.74-1.8s-.14-.07-.22-.07h-1.58c-.08,0-.18.03-.22.07l-1.74,1.8c-1.22-.11-2.43-.3-3.6-.55l.05-2.06s-.06-.1-.12-.13l-1.42-.47c-.07-.02-.18-.02-.25,0l-3.07,1.06c-.48-.22-.94-.46-1.39-.72-.44-.26-.86-.52-1.25-.8l1.83-1.77s.04-.11,0-.15Z"/>
              <polygon class="cls-18" points="322.25 222.72 318.68 222.7 318.68 218.54 322.25 218.56 322.25 222.72"/>
              <polygon class="cls-24" points="351.86 222.68 348.28 222.65 348.28 218.5 351.86 218.52 351.86 222.68"/>
              <polygon class="cls-23" points="352.81 217.43 349.23 217.41 349.23 213.25 352.81 213.27 352.81 217.43"/>
              <polygon class="cls-23" points="349.14 212.6 345.57 212.57 345.57 208.41 349.14 208.44 349.14 212.6"/>
              <polygon class="cls-24" points="346.44 227 343.37 225.94 343.37 221.78 346.44 222.84 346.44 227"/>
              <polygon class="cls-24" points="337.99 229.16 336.25 227.35 336.25 223.19 337.99 225 337.99 229.16"/>
              <polygon class="cls-18" points="332.5 229.15 334.24 227.35 334.24 223.19 332.5 224.99 332.5 229.15"/>
              <polygon class="cls-17" points="324.09 227 327.16 225.94 327.16 221.78 324.09 222.84 324.09 227"/>
              <polygon class="cls-17" points="337.99 229.16 341.59 228.61 341.59 224.45 337.99 225 337.99 229.16"/>
              <polygon class="cls-24" points="321.45 225.48 324.09 227 324.09 222.84 321.45 221.32 321.45 225.48"/>
              <polygon class="cls-17" points="328.9 228.6 332.5 229.15 332.5 224.99 328.9 224.44 328.9 228.6"/>
              <polygon class="cls-17" points="346.44 227 349.07 225.48 349.07 221.32 346.44 222.84 346.44 227"/>
              <path class="cls-23" d="m351.86,222.68s.66-.91.95-2.08v-4.16s-.95,2.08-.95,2.08v4.16Z"/>
              <polygon class="cls-22" points="332.51 209.47 328.93 209.44 328.93 205.28 332.51 205.31 332.51 209.47"/>
              <polygon class="cls-17" points="325.03 212.6 321.46 212.57 321.46 208.41 325.03 208.44 325.03 212.6"/>
              <polygon class="cls-17" points="321.29 217.47 317.71 217.45 317.71 213.29 321.29 213.31 321.29 217.47"/>
              <path class="cls-7" d="m323.29,219.4l-.81-.82s-.14-.07-.22-.07l-3.57.03c-.45-.68-.77-1.37-.96-2.08l3.12-1.01c.07-.02.13-.08.13-.13v-.91s-.06-.1-.13-.12l-3.12-1c.19-.71.51-1.4.95-2.08l3.57.02c.08,0,.18-.03.22-.07l.83-.83s.04-.11,0-.15l-1.83-1.77c.39-.28.8-.54,1.25-.8.44-.26.91-.5,1.39-.72l3.07,1.06c.07.02.18.02.25,0l1.44-.48c.07-.02.12-.08.12-.13l-.04-2.06c1.17-.26,2.38-.44,3.6-.55l1.74,1.8s.14.07.22.07h1.58c.08,0,.18-.03.22-.07l1.74-1.8c1.22.11,2.43.3,3.6.55l-.05,2.06s.06.1.12.13l1.42.47c.07.02.18.02.25,0l3.07-1.06c.48.22.94.46,1.39.72.44.26.86.52,1.25.8l-1.83,1.77s-.04.11,0,.15l.82.82s.14.07.22.07l3.57-.03c.45.68.77,1.37.96,2.08l-3.12,1.01c-.07.02-.13.08-.13.12v.91s.06.1.13.12l3.12,1c-.19.71-.51,1.4-.95,2.08l-3.57-.02c-.08,0-.18.03-.22.07l-.83.83s-.04.11,0,.14l1.83,1.77c-.39.28-.8.54-1.25.8-.44.26-.91.5-1.39.72l-3.07-1.06c-.07-.02-.18-.02-.25,0l-1.44.48c-.07.02-.13.08-.13.13l.04,2.06c-1.17.26-2.38.44-3.6.55l-1.74-1.8s-.14-.07-.22-.07h-1.58c-.08,0-.18.03-.22.07l-1.74,1.8c-1.22-.11-2.43-.3-3.6-.55l.05-2.06s-.06-.1-.12-.13l-1.42-.47c-.07-.02-.18-.02-.25,0l-3.07,1.06c-.48-.22-.94-.46-1.39-.72-.44-.26-.86-.52-1.25-.8l1.83-1.77s.04-.11,0-.15Z"/>
              <polygon class="cls-24" points="317.72 220.62 318.68 222.7 318.68 218.54 317.72 216.46 317.72 220.62"/>
            </g>
            <path class="cls-27" d="m328.82,222.25c.07.02.12.08.12.13l-.05,2.06c1.17.26,2.38.44,3.6.55l1.74-1.8s.14-.07.22-.07h1.58c.08,0,.18.03.22.07l1.74,1.8c1.22-.11,2.43-.29,3.6-.55l-.04-2.06s.06-.1.13-.13l1.44-.48c.07-.02.18-.02.25,0l3.07,1.06c.48-.22.94-.46,1.39-.72.44-.26.86-.52,1.25-.8l-1.83-1.77s-.04-.1,0-.14l.83-.83s.14-.07.22-.07l3.57.02c.45-.68.76-1.37.95-2.08l-3.12-1c-.07-.02-.13-.08-.13-.12v-.91s.06-.1.13-.12l3.12-1.01c-.19-.71-.51-1.4-.96-2.08l-3.57.03c-.08,0-.18-.03-.22-.07l-.82-.82s-.04-.11,0-.15l1.83-1.77c-.39-.28-.8-.54-1.25-.8-.44-.26-.91-.5-1.39-.72l-3.07,1.06c-.07.02-.18.02-.25,0l-1.42-.47c-.07-.02-.13-.08-.12-.13l.05-2.06c-1.17-.26-2.38-.44-3.6-.55l-1.74,1.8s-.14.07-.22.07h-1.58c-.08,0-.18-.03-.22-.07l-1.74-1.8c-1.22.11-2.43.29-3.6.55l.04,2.06s-.05.1-.12.13l-1.44.48c-.07.02-.18.02-.25,0l-3.07-1.06c-.48.22-.94.46-1.39.72-.44.26-.86.52-1.25.8l1.83,1.77s.04.11,0,.15l-.83.83s-.14.07-.22.07l-3.57-.02c-.45.68-.76,1.37-.95,2.08l3.12,1c.07.02.13.08.13.12v.91s-.06.1-.13.13l-3.12,1.01c.19.71.51,1.4.96,2.08l3.57-.03c.08,0,.18.03.22.07l.81.82s.04.11,0,.15l-1.83,1.77c.39.28.8.54,1.25.8.44.26.91.5,1.39.72l3.07-1.06c.07-.02.18-.02.25,0l1.42.47Z"/>
            <path class="cls-5" d="m341.29,218.34c3.33-1.92,3.33-5.04,0-6.96-3.33-1.92-8.72-1.92-12.05,0-3.33,1.92-3.33,5.04,0,6.96,3.33,1.92,8.72,1.92,12.05,0Z"/>
            <path class="cls-19" d="m329.24,215.55c3.33-1.92,8.72-1.92,12.05,0,.72.42,1.29.89,1.7,1.4-.41.51-.97.98-1.7,1.4-3.33,1.92-8.72,1.92-12.05,0-.72-.42-1.29-.89-1.7-1.4.41-.51.97-.98,1.7-1.4Z"/>
          </g>
          <g>
            <g>
              <path class="cls-15" d="m283.74,203.08l-1.17-1.17c-.06-.06-.2-.1-.31-.1l-5.13.04c-.64-.97-1.1-1.97-1.38-2.98l4.48-1.44c.1-.03.18-.11.18-.18v-1.31c0-.07-.09-.15-.19-.18l-4.49-1.44c.27-1.01.73-2.02,1.37-2.99l5.13.03c.12,0,.26-.05.31-.1l1.19-1.19c.06-.06.06-.15,0-.21l-2.63-2.55c.56-.4,1.15-.78,1.79-1.15.64-.37,1.3-.71,1.99-1.03l4.41,1.52c.1.03.26.03.36,0l2.07-.69c.1-.03.18-.11.18-.18l-.06-2.96c1.68-.37,3.41-.63,5.17-.79l2.5,2.59c.05.06.19.11.31.11h2.26c.12,0,.25-.05.31-.1l2.5-2.59c1.76.16,3.49.42,5.17.8l-.07,2.96c0,.07.08.15.18.18l2.03.68c.1.03.26.03.36,0l4.41-1.52c.69.32,1.35.67,1.99,1.03.64.37,1.23.75,1.79,1.15l-2.63,2.54c-.06.06-.06.15,0,.21l1.17,1.17c.06.06.2.1.31.1l5.13-.04c.64.97,1.1,1.97,1.38,2.98l-4.48,1.45c-.1.03-.18.11-.18.18v1.31c0,.07.09.15.19.18l4.49,1.44c-.27,1.01-.73,2.02-1.37,2.99l-5.13-.03c-.12,0-.26.05-.31.1l-1.19,1.19c-.06.06-.06.15,0,.21l2.63,2.55c-.56.4-1.15.78-1.79,1.15-.64.37-1.3.71-1.99,1.03l-4.41-1.52c-.1-.03-.26-.03-.36,0l-2.07.69c-.1.03-.18.11-.18.18l.06,2.96c-1.68.37-3.41.63-5.17.79l-2.5-2.59c-.06-.06-.2-.11-.31-.11h-2.26c-.12,0-.26.05-.31.1l-2.5,2.59c-1.76-.16-3.49-.42-5.17-.8l.07-2.96c0-.07-.08-.15-.18-.18l-2.03-.68c-.1-.03-.26-.03-.36,0l-4.41,1.52c-.69-.32-1.35-.67-1.99-1.03-.64-.37-1.24-.75-1.79-1.15l2.63-2.54c.06-.06.06-.15,0-.21Z"/>
              <polygon class="cls-18" points="282.26 201.88 277.13 201.85 277.13 195.87 282.26 195.91 282.26 201.88"/>
              <polygon class="cls-24" points="324.78 201.82 319.64 201.79 319.64 195.81 324.78 195.85 324.78 201.82"/>
              <polygon class="cls-23" points="326.14 194.28 321.01 194.25 321.01 188.28 326.14 188.31 326.14 194.28"/>
              <polygon class="cls-23" points="320.88 187.34 315.75 187.31 315.75 181.34 320.88 181.37 320.88 187.34"/>
              <polygon class="cls-24" points="316.99 208.02 312.58 206.5 312.58 200.53 316.99 202.05 316.99 208.02"/>
              <polygon class="cls-24" points="304.86 211.12 302.37 208.53 302.37 202.56 304.86 205.15 304.86 211.12"/>
              <polygon class="cls-18" points="296.98 211.12 299.48 208.53 299.48 202.56 296.98 205.15 296.98 211.12"/>
              <polygon class="cls-17" points="284.9 208.02 289.3 206.5 289.3 200.53 284.9 202.05 284.9 208.02"/>
              <polygon class="cls-17" points="304.86 211.12 310.03 210.33 310.03 204.36 304.86 205.15 304.86 211.12"/>
              <polygon class="cls-15" points="281.11 205.84 284.9 208.02 284.9 202.05 281.11 199.86 281.11 205.84"/>
              <polygon class="cls-17" points="291.81 210.32 296.98 211.12 296.98 205.15 291.81 204.35 291.81 210.32"/>
              <polygon class="cls-17" points="316.99 208.02 320.77 205.84 320.77 199.86 316.99 202.05 316.99 208.02"/>
              <path class="cls-23" d="m324.78,201.82s.95-1.31,1.37-2.99v-5.97s-1.37,2.99-1.37,2.99v5.97Z"/>
              <polygon class="cls-22" points="296.99 182.85 291.85 182.81 291.85 176.84 296.99 176.87 296.99 182.85"/>
              <polygon class="cls-17" points="286.25 187.34 281.12 187.31 281.12 181.33 286.25 181.37 286.25 187.34"/>
              <polygon class="cls-17" points="280.87 194.34 275.74 194.31 275.74 188.34 280.87 188.37 280.87 194.34"/>
              <path class="cls-8" d="m283.74,197.11l-1.17-1.17c-.06-.06-.2-.1-.31-.1l-5.13.04c-.64-.97-1.1-1.97-1.38-2.98l4.48-1.44c.1-.03.18-.11.18-.18v-1.31c0-.07-.09-.15-.19-.18l-4.49-1.44c.27-1.01.73-2.02,1.37-2.99l5.13.03c.12,0,.26-.05.31-.1l1.19-1.19c.06-.06.06-.15,0-.21l-2.63-2.55c.56-.4,1.15-.78,1.79-1.15.64-.37,1.3-.71,1.99-1.03l4.41,1.52c.1.03.26.03.36,0l2.07-.69c.1-.03.18-.11.18-.18l-.06-2.96c1.68-.37,3.41-.63,5.17-.79l2.5,2.59c.05.06.19.11.31.11h2.26c.12,0,.25-.05.31-.1l2.5-2.59c1.76.16,3.49.42,5.17.8l-.07,2.96c0,.07.08.15.18.18l2.03.68c.1.03.26.03.36,0l4.41-1.52c.69.32,1.35.67,1.99,1.03.64.37,1.23.75,1.79,1.15l-2.63,2.54c-.06.06-.06.15,0,.21l1.17,1.17c.06.06.2.1.31.1l5.13-.04c.64.97,1.1,1.97,1.38,2.98l-4.48,1.45c-.1.03-.18.11-.18.18v1.31c0,.07.09.15.19.18l4.49,1.44c-.27,1.01-.73,2.02-1.37,2.99l-5.13-.03c-.12,0-.26.05-.31.1l-1.19,1.19c-.06.06-.06.15,0,.21l2.63,2.55c-.56.4-1.15.78-1.79,1.15-.64.37-1.3.71-1.99,1.03l-4.41-1.52c-.1-.03-.26-.03-.36,0l-2.07.69c-.1.03-.18.11-.18.18l.06,2.96c-1.68.37-3.41.63-5.17.79l-2.5-2.59c-.06-.06-.2-.11-.31-.11h-2.26c-.12,0-.26.05-.31.1l-2.5,2.59c-1.76-.16-3.49-.42-5.17-.8l.07-2.96c0-.07-.08-.15-.18-.18l-2.03-.68c-.1-.03-.26-.03-.36,0l-4.41,1.52c-.69-.32-1.35-.67-1.99-1.03-.64-.37-1.24-.75-1.79-1.15l2.63-2.54c.06-.06.06-.15,0-.21Z"/>
              <polygon class="cls-15" points="275.75 198.86 277.13 201.85 277.13 195.87 275.75 192.89 275.75 198.86"/>
            </g>
            <path class="cls-27" d="m291.7,201.21c.1.03.18.11.18.18l-.07,2.96c1.68.37,3.41.64,5.17.8l2.5-2.59c.06-.06.2-.11.31-.11h2.26c.12,0,.26.05.31.11l2.5,2.59c1.76-.16,3.49-.42,5.17-.79l-.06-2.96c0-.07.08-.15.18-.18l2.07-.69c.1-.03.26-.03.36,0l4.41,1.52c.69-.32,1.35-.67,1.99-1.03.64-.37,1.24-.75,1.79-1.15l-2.63-2.55c-.06-.06-.06-.15,0-.21l1.19-1.19c.06-.06.2-.1.31-.1l5.13.03c.64-.97,1.1-1.97,1.37-2.99l-4.49-1.44c-.1-.03-.18-.11-.18-.18v-1.31c0-.07.08-.15.18-.18l4.48-1.45c-.28-1.01-.74-2.01-1.38-2.98l-5.13.04c-.12,0-.26-.05-.31-.1l-1.17-1.17c-.06-.06-.06-.15,0-.21l2.63-2.54c-.56-.4-1.15-.78-1.79-1.15-.64-.37-1.3-.71-1.99-1.03l-4.41,1.52c-.1.03-.26.03-.36,0l-2.03-.68c-.1-.03-.18-.11-.18-.18l.07-2.96c-1.68-.37-3.41-.64-5.17-.8l-2.5,2.59c-.06.06-.2.11-.31.11h-2.26c-.12,0-.25-.05-.31-.11l-2.5-2.59c-1.76.16-3.49.42-5.17.79l.06,2.96c0,.07-.08.15-.18.18l-2.07.69c-.1.03-.26.03-.36,0l-4.41-1.52c-.69.32-1.35.67-1.99,1.03-.64.37-1.23.75-1.79,1.15l2.63,2.55c.06.06.06.15,0,.21l-1.19,1.19c-.06.06-.2.1-.31.1l-5.13-.03c-.64.97-1.1,1.97-1.37,2.99l4.49,1.44c.1.03.18.11.18.18v1.31c0,.07-.08.15-.18.18l-4.48,1.44c.27,1.01.74,2.01,1.38,2.98l5.13-.04c.11,0,.26.05.31.1l1.17,1.17c.06.06.06.15,0,.21l-2.63,2.54c.56.4,1.15.78,1.79,1.15.64.37,1.3.71,1.99,1.03l4.41-1.52c.1-.03.26-.03.36,0l2.03.68Z"/>
            <path class="cls-9" d="m309.59,195.59c4.78-2.76,4.78-7.23,0-9.99-4.78-2.76-12.52-2.76-17.3,0-4.78,2.76-4.78,7.23,0,9.99,4.78,2.76,12.52,2.76,17.3,0Z"/>
            <path class="cls-19" d="m292.29,191.58c4.78-2.76,12.52-2.76,17.3,0,1.04.6,1.85,1.28,2.44,2.01-.59.73-1.4,1.41-2.44,2.01-4.78,2.76-12.53,2.76-17.3,0-1.04-.6-1.85-1.28-2.44-2.01.59-.73,1.4-1.41,2.44-2.01Z"/>
          </g>
        </g>
        <g>
          <g>
            <polygon class="cls-28" points="126.2 258.59 138.88 261.94 138.88 265.91 119.15 273.78 119.15 269.81 119.41 269.26 98.71 265.84 96.55 253.58 126.2 258.59"/>
            <polygon class="cls-28" points="89.63 282.89 80.8 262.87 80.8 258.9 96.72 253.68 108.59 276.05 108.59 280.02 89.63 282.89"/>
            <polygon class="cls-28" points="94.94 293.59 86.97 294.89 86.97 290.92 99.41 283.56 121.18 285.4 121.18 289.37 113.84 290.53 119.72 303.57 102.54 310.88 94.94 293.59"/>
            <polygon class="cls-28" points="149.74 299.49 124.34 314.12 102.54 310.88 135.81 291.55 149.74 295.52 149.74 299.49"/>
            <polygon class="cls-28" points="167.6 289.44 169.94 290.78 169.94 294.75 146.73 294.05 144.84 280.24 144.84 276.27 150.18 283.37 166.99 274.02 186.44 279.09 167.6 289.44"/>
            <polygon class="cls-28" points="140.95 267.85 186.44 275.12 186.44 279.09 140.95 271.82 140.95 267.85"/>
          </g>
          <g>
            <polygon class="cls-27" points="126.2 254.62 128.3 250 138.88 261.94 119.15 269.81 121.15 265.58 98.71 261.87 96.55 249.61 126.2 254.62"/>
            <polygon class="cls-27" points="89.63 278.92 80.8 258.9 96.72 249.71 108.59 276.05 89.63 278.92"/>
            <polygon class="cls-27" points="94.94 289.62 86.97 290.92 99.41 279.59 121.18 285.4 113.84 286.56 119.72 299.6 102.54 306.91 94.94 289.62"/>
            <polygon class="cls-27" points="149.74 295.52 124.34 310.15 102.54 306.91 135.81 287.58 149.74 295.52"/>
            <polygon class="cls-27" points="164.06 287.42 169.94 290.78 146.73 290.08 144.84 276.27 150.18 279.4 166.99 270.05 186.44 275.12 164.06 287.42"/>
            <polygon class="cls-27" points="146.12 256.94 180.65 262.56 186.44 275.12 140.95 267.85 146.12 256.94"/>
          </g>
        </g>
        <g>
          <g>
            <g>
              <g>
                <path class="cls-1" d="m184.3,140.01c.69,0,1.35-.16,1.85-.46l46.84-27.04c.63-.36.99-.91.99-1.51,0-.59-.36-1.14-.98-1.51l-.63-.37-.02-.02c-.14-.14-.3-.26-.49-.37l-67.46-39.2c-.51-.29-1.16-.46-1.85-.46s-1.34.16-1.85.45l-46.84,27.04c-.63.36-.99.91-.99,1.51,0,.59.36,1.14.98,1.51l.63.37.02.02c.14.14.3.26.49.37l67.46,39.2c.51.29,1.16.46,1.85.46Z"/>
                <g>
                  <path class="cls-28" d="m115.02,98.41l67.46,39.2c.81.47,2.13.47,2.95,0l46.84-27.04c.41-.24.62-.55.61-.86v.62c0,.31-.2.62-.61.86l-46.84,27.04c-.82.47-2.14.47-2.95,0l-67.46-39.2c-.4-.23-.6-.54-.61-.85v-.62c0,.31.2.61.6.85Z"/>
                  <path class="cls-28" d="m115.03,96.7c-.82.47-.82,1.24,0,1.71l67.46,39.2c.81.47,2.13.47,2.95,0l46.84-27.04c.82-.47.82-1.23,0-1.71l-67.46-39.2c-.81-.47-2.13-.47-2.95,0l-46.84,27.04Z"/>
                </g>
                <g>
                  <path class="cls-28" d="m115.34,96.2l67.46,39.2c.81.47,2.13.47,2.95,0l46.84-27.04c.41-.24.62-.55.61-.86v.62c0,.31-.2.62-.61.86l-46.84,27.04c-.82.47-2.14.47-2.95,0l-67.46-39.2c-.4-.23-.6-.54-.61-.85v-.62c0,.31.2.61.6.85Z"/>
                  <path class="cls-28" d="m115.35,94.49c-.82.47-.82,1.24,0,1.71l67.46,39.2c.81.47,2.13.47,2.95,0l46.84-27.04c.82-.47.82-1.23,0-1.71l-67.46-39.2c-.81-.47-2.13-.47-2.95,0l-46.84,27.04Z"/>
                </g>
                <polygon class="cls-16" points="116.26 92.95 116.26 95.26 184 134.63 183.99 132.31 116.26 92.95"/>
                <g>
                  <polygon class="cls-33" points="166.73 67.89 119.74 92.57 185.11 130.36 231.85 102.23 166.73 67.89"/>
                  <g>
                    <polygon class="cls-27" points="164.17 65.29 116.26 92.95 183.99 132.31 231.9 104.65 164.17 65.29"/>
                    <polygon class="cls-27" points="164.17 65.29 116.26 92.95 183.99 132.31 231.9 104.65 164.17 65.29"/>
                    <g>
                      <path class="cls-21" d="m193.2,118.33c.23-.13.5-.25.82-.34.31-.1.62-.15.92-.17.39-.03.68.01.85.11.11.07.16.15.16.26,0,.11-.07.21-.19.33l-.6.55c-.17.18-.18.31-.05.39.07.04.18.07.32.09.36.06.76.03,1.18-.07.43-.1.8-.24,1.11-.43.14-.08.26-.17.36-.25,0-.12-.04-.23-.14-.34-.03-.04-.19-.16-.48-.38-.15-.11-.18-.19-.08-.25.13-.08.32-.1.56-.06.1.02.2.05.3.11.1.06.17.14.23.24.05.11.07.2.06.28-.02.12-.14.27-.34.43-.04.19-.11.31-.23.38-.06.04-.11.05-.13.03,0,0,0-.01,0-.02.11-.11.19-.21.23-.29-.08.06-.19.13-.31.2-.44.25-.89.43-1.36.54-.55.13-1.03.13-1.44,0-.09-.03-.17-.06-.23-.1-.15-.09-.2-.19-.15-.32.03-.1.14-.22.31-.36l.42-.35c.26-.24.3-.41.13-.5-.11-.06-.3-.09-.57-.09-.27,0-.54.05-.81.13-.27.08-.51.18-.71.3-.36.21-.5.39-.43.53.03.06.08.1.13.13.11.07.25.08.42.05.06-.01.13-.04.22-.09.09-.05.14-.07.16-.05.03.02,0,.05-.07.09-.08.04-.19.09-.34.12-.25.06-.46.04-.63-.06-.17-.1-.21-.23-.1-.4.08-.13.24-.26.47-.39Zm5.14.05c0-.18-.11-.34-.34-.47-.07-.04-.14-.07-.2-.08-.06-.01-.11-.02-.15-.01-.03,0-.06.01-.09.03-.02.01.04.08.2.2.27.21.42.42.44.63.09-.1.13-.2.13-.29h0Z"/>
                      <path class="cls-21" d="m186.65,123.17s-.05.04-.07.08c-.02.04-.01.07.02.09.03.02.2.03.49.04-.07.05-.17.1-.29.17l-.64.36s0,.01,0,.02c.03.02.24-.07.65-.25.41-.18.63-.28.67-.29.11,0,.35.02.75.08.39.06.65.12.76.18.11.06.09.14-.06.22-.07.04-.18.08-.34.12-.16.04-.28.07-.38.08-.25.03-.55.05-.9.04h.25c.06.02.1.02.11.03.01,0,.02.02,0,.02,0,0-.02,0-.03.01.2,0,.4-.02.58-.04.37-.05.65-.14.86-.25.09-.05.14-.11.16-.16.02-.06-.03-.12-.15-.19-.05-.03-.12-.06-.21-.09-.09-.03-.19-.05-.31-.08-.04,0-.08-.02-.13-.03-.31-.06-.55-.1-.7-.13.05-.02.09-.04.12-.05.08-.05.09-.09.03-.13-.05-.03-.12-.03-.21,0,0,0-.02.01-.04.02l-.25.15c-.12,0-.26-.02-.41-.03-.19-.01-.29-.01-.32,0Z"/>
                      <path class="cls-21" d="m182.39,126.82c.28.02.59.02.91,0,.42-.02.71-.07.85-.16.14-.08.14-.17,0-.26-.09-.05-.19-.09-.31-.11-.01.01-.03.03-.05.04-.15.09-.43.16-.82.22-.39.06-.67.04-.83-.06-.05-.03-.07-.07-.07-.11,0-.05.04-.09.11-.13.2-.12.57-.17,1.09-.17.36,0,.64.04.85.09.06.02.12.04.17.06.03.01.05.02.07.04.16.09.17.2.03.34-.02.02-.04.04-.07.06-.15.09-.42.15-.8.19-.38.04-.75.04-1.11.01-.06,0-.09-.01-.11-.02-.02-.01-.02-.02,0-.03.02-.01.06-.01.12,0Zm.37-.56c-.25.01-.41.04-.49.08-.07.04-.09.07-.06.09.01,0,.03.01.05.02.19.05.43.06.73.02.3-.04.51-.09.62-.15.02-.01.04-.02.05-.04-.27-.04-.57-.05-.9-.03h0Z"/>
                      <path class="cls-21" d="m183.58,124.99c-.07.04-.07.08-.01.11.06.03.17.06.33.07l.24.02c.06.04.05.08-.04.13-.05.03-.13.05-.23.07l-.18.03s-.02,0-.05.02c-.02.01-.03.04-.03.07,0,.03.02.05.05.06l.68.05c.42.03.7.09.84.17.14.08.14.16.01.23-.13.08-.37.13-.71.16-.13.01-.26.02-.39.02.06.02.12.04.17.06.07,0,.15,0,.23-.01.4-.03.68-.09.82-.18.22-.13.21-.26-.03-.4-.12-.07-.29-.13-.5-.18-.21-.05-.4-.08-.57-.09.02,0,.04-.02.06-.03.07-.04.08-.1.03-.19l.74.06c.12,0,.22.01.31.02.21,0,.32,0,.34,0,.01,0,.02-.02,0-.02-.03-.02-.09-.03-.18-.03,0,0-.01,0-.02,0-.55-.02-.97-.06-1.28-.12-.32-.11-.53-.13-.63-.07Z"/>
                      <path class="cls-21" d="m185.01,124.62c-.1.06-.12.11-.04.16.03.02.17.03.43.04.37.02.66.04.87.06.21.02.36.06.44.1.08.05.1.08.05.11-.02.01-.05.02-.09.03-.26.06-.65.08-1.17.07.09,0,.16.01.18.03.01,0,.01.01,0,.02-.02.01-.13.01-.34,0,0,0,.01,0,.02,0,.27.01.56.01.88,0,.32-.01.52-.04.6-.07.02,0,.05-.02.1-.05.05-.03.08-.07.09-.12.01-.05-.01-.09-.07-.13-.06-.03-.14-.07-.23-.1-.09-.03-.16-.05-.21-.07.72.03,1.18,0,1.37-.12.12-.07.11-.15-.02-.24-.01,0-.02-.01-.03-.02-.12-.07-.37-.13-.73-.16.16,0,.33,0,.52,0,.01,0,.02,0,.03,0,.01,0,.02,0,.03-.01.01,0,.01-.01,0-.02-.01,0-.05-.01-.11-.02h-.25s-1.06-.06-1.06-.06c-.16,0-.28.01-.36.06-.08.05-.09.08-.04.11.02.01.05.02.08.02.22,0,.55.01.97.06.43.04.7.1.82.17.05.03.06.06.03.08-.12.07-.42.1-.89.1-.16,0-.49-.02-.99-.05-.5-.03-.78-.03-.85.01Z"/>
                      <path class="cls-21" d="m189.81,123.19s-.01-.01-.02-.02c-.1-.06-.38-.12-.82-.17-.45-.05-.67-.08-.69-.09-.01,0-.02-.03-.02-.06,0-.03.02-.06.05-.08l.07-.03s0,0-.01-.02c-.01-.01-.02-.03-.04-.05-.03-.06,0-.11.09-.17.25-.14.67-.22,1.26-.22.2,0,.38,0,.54.02.18.02.32.04.44.07.09.02.16.05.22.09.1.06.13.12.11.2-.02.07-.07.13-.15.17-.08.04-.28.07-.6.08h-.53c.06.03.12.05.16.08.14.08.17.18.09.28-.01.02-.04.04-.06.05-.15.09-.49.12-1.04.1-.09-.03-.19-.05-.31-.08.69.03,1.1.01,1.23-.06.05-.03.05-.07,0-.11Zm-.25-.34c.66.05,1.07.02,1.24-.08.07-.04.06-.09-.05-.15-.18-.1-.55-.15-1.12-.14-.57.01-.94.07-1.12.17-.05.03-.07.06-.05.1l1.1.1h0Z"/>
                      <path class="cls-21" d="m189.86,121.75c-.08.05-.09.09-.01.13.01,0,.03.02.05.02.02,0,.16.02.41.04.28.01.53.03.76.06.23.03.39.07.48.12.09.05.12.09.08.12-.13.07-.53.1-1.19.08-.01,0-.03,0-.07,0-.07,0-.11,0-.14,0,.18.02.32.04.44.07.61.01.99-.02,1.12-.1.14-.08.14-.17-.02-.26-.16-.09-.39-.16-.71-.21l-.73-.1c.34-.03.68-.04,1-.03.33.01.63.03.92.05.29.02.44.03.46.01.04-.03.06-.06.05-.09-.01-.04-.04-.07-.1-.1-.05-.03-.14-.06-.27-.09-.13-.03-.28-.07-.47-.11h.54c.13,0,.2,0,.22,0,.02,0,.01-.02,0-.03-.02-.01-.05-.02-.1-.02-.21,0-.41,0-.59-.02-.17-.01-.52-.03-1.03-.06-.06,0-.11,0-.14.02-.08.05-.09.09-.03.12.02.01.04.02.07.02.62.06,1.05.13,1.29.2-1.35,0-2.1.04-2.25.13-.02,0-.03.01-.04.02Z"/>
                      <path class="cls-21" d="m191.65,120.82l.07-.03s0,0-.01-.02c-.01-.01-.02-.03-.04-.05-.03-.05,0-.11.1-.17.24-.14.66-.21,1.25-.22.26,0,.49.01.67.03.14.02.25.04.35.07.07.02.13.05.18.08.1.06.13.12.11.2-.02.07-.06.13-.14.17-.08.04-.32.07-.73.07h-.66s.65.12.65.12c.43.07.78.12,1.05.13.41.02.69-.02.86-.12.04-.02.06-.06.06-.11,0-.05-.03-.1-.09-.15-.01-.02-.02-.03,0-.03.02-.01.05,0,.09,0,.08.05.13.12.14.19,0,.08-.03.14-.11.19-.24.14-.67.18-1.29.13-.29-.02-.77-.09-1.44-.21-.19-.03-.42-.07-.7-.11-.21-.03-.33-.05-.35-.05-.02,0-.03-.02-.05-.02-.01,0-.02-.02-.02-.05,0-.03.02-.05.05-.07Zm1.25.07c.66.05,1.07.02,1.24-.08.07-.04.06-.09-.05-.15-.17-.1-.55-.15-1.12-.14-.57,0-.95.07-1.13.17-.06.03-.07.06-.05.1l1.1.1h0Z"/>
                      <path class="cls-21" d="m193.12,119.73s-.01-.07-.05-.09c-.08-.05-.18-.04-.29.03-.04.03-.07.06-.08.1-.01.04,0,.07.04.09.04.02.09.03.15.03.06,0,.12-.02.16-.05.04-.03.07-.06.07-.1Z"/>
                      <path class="cls-21" d="m194.9,120.33c-.4.05-.75.07-1.08.05-.05,0-.09,0-.12,0,.14.02.25.04.35.07.05,0,.1,0,.13,0,.08,0,.13,0,.16,0,.03,0,.08,0,.15,0,.08,0,.13,0,.17,0,.03,0,.09,0,.15-.01.07,0,.12-.01.16-.02.04,0,.09-.02.15-.03.09-.02.17-.05.26-.1.15-.09.13-.18-.06-.3-.16-.09-.46-.17-.91-.23-.45-.06-.73-.06-.83,0-.03.02-.05.04-.06.08-.01.03,0,.06.02.07.03,0,.07,0,.12,0,.05,0,.09,0,.15,0,.05,0,.13,0,.22.02.09,0,.19.02.27.02.5.04.8.09.91.15.11.06.12.11.05.16-.06.04-.18.06-.35.09Z"/>
                    </g>
                    <polygon class="cls-31" points="231.9 104.65 215.02 94.72 198.11 84.83 181.19 74.98 164.26 65.14 164.17 65.09 164.08 65.14 152.11 72.07 140.15 79.01 128.2 85.97 116.26 92.95 128.27 86.1 140.27 79.23 152.27 72.35 164.25 65.44 164.08 65.44 181.01 75.28 197.95 85.11 214.92 94.9 231.9 104.65"/>
                  </g>
                  <polygon class="cls-26" points="183.99 132.31 184 134.63 231.91 106.96 231.9 104.65 183.99 132.31"/>
                </g>
              </g>
              <g class="cls-36">
                <polygon class="cls-26" points="157.52 80.47 158.24 80.89 167.51 75.54 166.79 75.12 157.52 80.47"/>
                <polygon class="cls-26" points="158.63 81.12 159.28 81.49 170.38 75.08 169.74 74.71 158.63 81.12"/>
                <polygon class="cls-26" points="159.67 81.72 160.31 82.09 171.41 75.68 170.77 75.31 159.67 81.72"/>
                <polygon class="cls-26" points="160.7 82.32 161.34 82.69 172.45 76.28 171.8 75.91 160.7 82.32"/>
                <polygon class="cls-26" points="170.73 82.52 171.33 82.87 177.58 79.26 176.97 78.91 170.73 82.52"/>
                <polygon class="cls-26" points="161.73 82.92 162.38 83.29 173.48 76.88 172.84 76.51 161.73 82.92"/>
                <polygon class="cls-26" points="162.77 83.52 163.41 83.89 174.52 77.48 173.87 77.11 162.77 83.52"/>
                <polygon class="cls-26" points="163.8 84.12 164.44 84.5 175.55 78.08 174.91 77.71 163.8 84.12"/>
                <polygon class="cls-26" points="164.83 84.72 165.48 85.1 176.58 78.68 175.94 78.31 164.83 84.72"/>
                <polygon class="cls-26" points="142.47 89.16 143.19 89.58 154.2 83.22 153.48 82.8 142.47 89.16"/>
                <polygon class="cls-26" points="143.58 89.81 144.23 90.18 158.1 82.17 157.46 81.8 143.58 89.81"/>
                <polygon class="cls-26" points="144.62 90.41 145.26 90.78 159.13 82.77 158.49 82.4 144.62 90.41"/>
                <polygon class="cls-26" points="145.65 91.01 146.3 91.38 160.17 83.37 159.52 83 145.65 91.01"/>
                <polygon class="cls-26" points="155.49 91.31 156.1 91.67 165.3 86.35 164.69 86 155.49 91.31"/>
                <polygon class="cls-26" points="146.68 91.61 147.33 91.98 161.2 83.97 160.56 83.6 146.68 91.61"/>
                <polygon class="cls-26" points="147.72 92.21 148.36 92.58 162.23 84.57 161.59 84.2 147.72 92.21"/>
                <polygon class="cls-26" points="148.75 92.81 149.4 93.18 163.27 85.17 162.62 84.8 148.75 92.81"/>
                <polygon class="cls-26" points="149.79 93.41 150.43 93.78 164.3 85.77 163.66 85.4 149.79 93.41"/>
                <polygon class="cls-26" points="152.56 95.02 154.15 95.95 180.3 80.85 178.71 79.92 152.56 95.02"/>
                <polygon class="cls-26" points="130.79 95.9 131.52 96.32 139.95 91.45 139.23 91.03 130.79 95.9"/>
                <polygon class="cls-26" points="131.91 96.55 132.55 96.92 143.05 90.86 142.41 90.48 131.91 96.55"/>
                <polygon class="cls-26" points="132.94 97.15 133.58 97.52 144.09 91.46 143.44 91.08 132.94 97.15"/>
                <polygon class="cls-26" points="133.97 97.75 134.62 98.12 145.12 92.06 144.48 91.69 133.97 97.75"/>
                <polygon class="cls-26" points="135.01 98.35 135.65 98.72 146.15 92.66 145.51 92.29 135.01 98.35"/>
                <polygon class="cls-26" points="136.04 98.95 136.68 99.32 147.19 93.26 146.54 92.89 136.04 98.95"/>
                <polygon class="cls-26" points="141.41 99.44 142.02 99.79 150.25 95.04 149.64 94.69 141.41 99.44"/>
                <polygon class="cls-26" points="137.07 99.55 137.72 99.93 148.22 93.86 147.58 93.49 137.07 99.55"/>
                <polygon class="cls-32" points="190.8 99.81 191.52 100.23 200.19 95.22 199.47 94.8 190.8 99.81"/>
                <polygon class="cls-26" points="138.11 100.15 138.75 100.53 149.25 94.46 148.61 94.09 138.11 100.15"/>
                <polygon class="cls-32" points="191.91 100.46 192.55 100.83 203.66 94.42 203.01 94.04 191.91 100.46"/>
                <polygon class="cls-32" points="192.94 101.06 193.59 101.43 204.69 95.02 204.05 94.65 192.94 101.06"/>
                <polygon class="cls-32" points="193.98 101.66 194.62 102.03 205.73 95.62 205.08 95.25 193.98 101.66"/>
                <polygon class="cls-26" points="140.88 101.77 142.47 102.69 152.98 96.62 151.39 95.7 140.88 101.77"/>
                <polygon class="cls-32" points="195.01 102.26 195.65 102.63 206.76 96.22 206.11 95.85 195.01 102.26"/>
                <polygon class="cls-32" points="196.04 102.86 196.69 103.23 207.79 96.82 207.15 96.45 196.04 102.86"/>
                <polygon class="cls-32" points="202.03 103 202.63 103.35 210.86 98.6 210.25 98.25 202.03 103"/>
                <polygon class="cls-32" points="197.08 103.46 197.72 103.83 208.83 97.42 208.18 97.05 197.08 103.46"/>
                <polygon class="cls-32" points="198.11 104.06 198.76 104.43 209.86 98.02 209.22 97.65 198.11 104.06"/>
                <polygon class="cls-30" points="155.51 96.73 170.49 105.44 196.64 90.34 181.66 81.63 155.51 96.73"/>
                <polygon class="cls-26" points="146.86 105.24 147.58 105.66 155.51 101.08 154.79 100.66 146.86 105.24"/>
                <polygon class="cls-26" points="147.97 105.88 148.62 106.26 159.12 100.2 158.47 99.82 147.97 105.88"/>
                <polygon class="cls-26" points="149.01 106.49 149.65 106.86 160.15 100.8 159.51 100.42 149.01 106.49"/>
                <polygon class="cls-26" points="150.04 107.09 150.68 107.46 161.19 101.4 160.54 101.02 150.04 107.09"/>
                <polygon class="cls-26" points="151.07 107.69 151.72 108.06 162.22 102 161.58 101.62 151.07 107.69"/>
                <polygon class="cls-26" points="152.11 108.29 152.75 108.66 163.25 102.6 162.61 102.22 152.11 108.29"/>
                <polygon class="cls-32" points="175.75 108.5 176.47 108.92 188.01 102.26 187.29 101.84 175.75 108.5"/>
                <polygon class="cls-26" points="153.14 108.89 153.79 109.26 164.29 103.2 163.64 102.82 153.14 108.89"/>
                <polygon class="cls-26" points="156.96 109.08 157.56 109.43 166.32 104.38 165.71 104.03 156.96 109.08"/>
                <polygon class="cls-32" points="176.86 109.14 177.51 109.52 191.38 101.51 190.73 101.13 176.86 109.14"/>
                <polygon class="cls-26" points="154.17 109.49 154.82 109.86 165.32 103.8 164.68 103.42 154.17 109.49"/>
                <polygon class="cls-32" points="190.92 109.41 191.53 109.76 198.58 105.69 197.97 105.34 190.92 109.41"/>
                <polygon class="cls-32" points="177.89 109.74 178.54 110.12 192.41 102.11 191.77 101.74 177.89 109.74"/>
                <polygon class="cls-32" points="178.93 110.35 179.57 110.72 193.44 102.71 192.8 102.34 178.93 110.35"/>
                <polygon class="cls-32" points="179.96 110.95 180.61 111.32 194.48 103.31 193.83 102.94 179.96 110.95"/>
                <polygon class="cls-32" points="181 111.55 181.64 111.92 195.51 103.91 194.87 103.54 181 111.55"/>
                <polygon class="cls-32" points="182.03 112.15 182.67 112.52 196.55 104.51 195.9 104.14 182.03 112.15"/>
                <polygon class="cls-32" points="183.06 112.75 183.71 113.12 197.58 105.11 196.94 104.74 183.06 112.75"/>
                <polygon class="cls-26" points="159.88 112.8 162.7 114.44 200.53 92.6 197.71 90.96 159.88 112.8"/>
                <polygon class="cls-34" points="164.22 115.25 171.91 119.72 181.69 114.08 173.99 109.61 164.22 115.25"/>
                <polygon class="cls-26" points="174.07 121.05 174.97 121.57 212.8 99.73 211.9 99.21 174.07 121.05"/>
              </g>
            </g>
            <g class="cls-35">
              <polygon class="cls-31" points="118.82 96.17 184 134.04 228.86 108.14 230.26 108.75 184.39 135.69 115.49 97.49 118.82 96.17"/>
            </g>
            <polygon class="cls-27" points="118.82 95.44 184 133.32 228.86 107.41 230.26 108.02 184.39 134.96 115.49 96.76 118.82 95.44"/>
          </g>
          <g class="cls-35">
            <g class="cls-36">
              <path class="cls-21" d="m219.32,102.71c1.65.95,2.18,2.37,1.36,3.63-.05.08-.2.11-.33.08-.03,0-.06-.02-.09-.03-.07-.04-.09-.1-.06-.16.75-1.15.27-2.45-1.24-3.32-1.6-.93-4.05-1.17-6.09-.62-.1.03-.21.01-.29-.03-.02-.01-.04-.03-.05-.04-.06-.07,0-.16.12-.2,2.23-.61,4.91-.34,6.67.67Z"/>
              <path class="cls-21" d="m211.93,103.25c-1.78,1.03-1.77,2.71.02,3.74,1.79,1.03,4.69,1.03,6.46,0,1.78-1.03,1.77-2.71-.02-3.75-1.79-1.03-4.69-1.03-6.47,0Zm.43,3.51c-1.56-.9-1.57-2.37-.02-3.27,1.55-.9,4.08-.9,5.64,0,1.56.9,1.57,2.37.02,3.27-1.55.9-4.08.9-5.64,0h0Z"/>
              <path class="cls-21" d="m217.93,107.92s.03.02.05.04c.06.07.02.16-.11.2-2.27.67-5.02.42-6.84-.63-1.65-.95-2.18-2.38-1.35-3.64.05-.08.2-.11.33-.08.03,0,.06.02.09.03.07.04.09.1.06.16-.76,1.15-.28,2.45,1.23,3.33,1.66.96,4.17,1.19,6.25.57.1-.03.22-.02.3.03Z"/>
              <path class="cls-21" d="m210.21,102.25c-2.72,1.58-2.71,4.15.03,5.73,2.74,1.58,7.18,1.58,9.9,0,2.72-1.58,2.71-4.15-.03-5.73-2.74-1.58-7.18-1.58-9.9,0Zm.46,5.49c-2.5-1.44-2.52-3.79-.03-5.24,2.49-1.44,6.54-1.44,9.04,0,2.5,1.44,2.52,3.79.03,5.24-2.49,1.44-6.54,1.44-9.04,0h0Z"/>
            </g>
          </g>
        </g>
        <g>
          <g class="cls-35">
            <path class="cls-20" d="m109.95,110.93c-1.41.81-1.54,2.1-.32,3.01,1.29.95,3.13,2.22,5.34,3.51,3.91,2.29,9.01,4.65,12.44,6.57.15.08.31.17.48.27.12.07.24.14.37.21.18.1.37.21.57.33,4.24,2.46,12.58,7.47,16.14,9.32,9.55,4.96,16.08,7.81,16.43,7.96l.33-.19,1.21.46c.32.12.74.09,1-.06.27-.15.31-.4.11-.58l-.78-.7.33-.19c-.26-.2-5.15-3.99-13.69-9.54-3.18-2.07-11.81-6.91-16.04-9.38-.2-.12-.39-.23-.57-.33-.13-.07-.25-.15-.36-.22-.17-.1-.32-.19-.47-.28-3.31-1.99-7.36-4.96-11.3-7.23-2.22-1.28-4.4-2.35-6.04-3.11-1.55-.71-3.78-.64-5.19.17Z"/>
          </g>
          <g>
            <g>
              <path class="cls-25" d="m109.41,109.14c.02-.11.07-.44.2-.78.07-.18.11-.28.14-.33.05-.09.11-.22.16-.31.03-.05.06-.1.09-.15.05-.08.11-.17.21-.29.14-.18.25-.28.25-.29.17-.17.2-.2.31-.29.08-.06.21-.18.4-.29.36-.23.62-.32.65-.33.15-.05.35-.12.5-.16.13-.04.32-.07.45-.09.08-.01.49-.07.99,0,.14.02.5.06.98.26.15.06,1.52.61,3.11,1.38,1.47.71,2.42,1.26,2.99,1.58,3.93,2.26,8.14,5.56,11.47,7.6-.45-.26-1.07-.23-1.75.15-1.4.78-2.55,2.72-2.57,4.34-.01.82.27,1.4.73,1.67-3.42-1.88-8.36-3.9-12.28-6.2-1.2-.7-2.21-1.38-2.86-1.82-.66-.45-1.13-.8-1.36-.97-1.05-.78-1.48-1.14-1.49-1.14-.36-.31-.62-.65-.69-.76-.05-.07-.11-.16-.15-.24-.07-.12-.15-.29-.21-.42,0,0-.1-.22-.18-.52-.11-.39-.12-.7-.13-.83-.02-.39.04-.76.04-.77Z"/>
              <path class="cls-27" d="m132.8,116.94c-.17-.1-.32-.2-.47-.28,0,0-.01,0-.02-.01-.45-.26-1.07-.23-1.75.15-1.4.78-2.55,2.72-2.57,4.34-.01.82.27,1.4.73,1.67,0,0,.01,0,.02.01.15.08.31.17.48.27,0,0,0,0,0,0-.47-.27-.75-.85-.74-1.67.02-1.62,1.17-3.56,2.56-4.33.69-.38,1.31-.41,1.76-.15,0,0,0,0,0,0Z"/>
              <path class="cls-25" d="m133.16,117.15c-.13-.07-.25-.15-.37-.22-.45-.26-1.07-.24-1.76.15-1.39.78-2.54,2.72-2.56,4.33-.01.82.28,1.41.74,1.67.12.07.24.14.37.21,0,0,0,0,0,0-.46-.27-.75-.85-.74-1.67.02-1.61,1.16-3.55,2.56-4.33.68-.38,1.3-.41,1.75-.15,0,0,0,0,0,0Z"/>
              <path class="cls-27" d="m133.72,117.48c-.2-.12-.39-.23-.57-.33-.45-.26-1.07-.23-1.75.15-1.39.78-2.54,2.71-2.56,4.33-.01.82.27,1.4.74,1.67.18.1.37.21.57.33-.46-.27-.75-.85-.74-1.67.02-1.61,1.16-3.55,2.56-4.33.68-.38,1.3-.41,1.75-.15Z"/>
              <path class="cls-11" d="m164.18,138.04c0-.71-.48-1-1.09-.66s-1.11,1.19-1.12,1.89c0,.71.48,1,1.09.66s1.11-1.19,1.12-1.89Zm-.33.18c0,.49-.36,1.09-.78,1.32-.43.24-.77.03-.76-.46s.36-1.09.78-1.32.77-.03.76.46h0Z"/>
              <path class="cls-25" d="m163.94,137.36c-1.11-.93-2.56-2.06-2.57-2.07-1.02-.8-1.25-.97-2.06-1.59-.56-.42-1.52-1.14-1.69-1.27q-1.29-.95-1.93-1.41c-.37-.27-1.15-.83-2.17-1.55-.76-.53-1.36-.96-2.39-1.67-1.1-.76-1.37-.93-1.82-1.23-.63-.42-1.92-1.2-2.8-1.73-.9-.54-1.27-.76-2.57-1.51-.31-.18-1.21-.7-2.76-1.59-.62-.35-1.23-.7-1.85-1.06-.88-.5-1.76-1-2.64-1.51-.53-.3-1.06-.61-1.59-.91-.29-.17-.84-.48-1.38-.8-.45-.26-1.06-.23-1.75.15-1.39.78-2.54,2.71-2.56,4.33-.01.82.27,1.4.74,1.67.8.46,1.06.62,2.15,1.26.24.14.57.33.81.48.25.15.59.35.85.5.59.35,1.18.7,1.77,1.05,1.32.78,2.44,1.44,2.75,1.63,1.5.88,1.93,1.13,2.71,1.58,1.38.8,2.47,1.41,2.49,1.41,1.34.74,1.97,1.07,2.09,1.13.5.25.77.39,1.97.97,1.12.54,1.79.86,2.63,1.26,1.13.53,2.03.94,2.42,1.12.34.15.79.36,1.12.51.32.14.74.33,1.06.47.43.19,1.73.76,2.81,1.21.53.22,1.41.59,2.78,1.14.39.15,1.21.48,1.83.71-.25-.09-.41-.36-.41-.77,0-.71.51-1.55,1.12-1.89.34-.19.64-.18.84-.01Z"/>
              <path class="cls-25" d="m164.76,139.17c0-.07,0-.17-.06-.31-.03-.07-.08-.17-.17-.26-.1-.1-.26-.11-.44-.01-.31.17-.56.6-.56.96,0,.22.09.36.23.4h0c.06.01.1.02.16.03.04,0,.11,0,.2-.01.13-.02.24-.07.34-.15.2-.15.32-.38.32-.63,0,.12-.08.23-.24.32.15-.09.24-.2.24-.32Z"/>
              <path class="cls-27" d="m164.53,138.6s-.06-.06-.08-.08c-.01-.01-.03-.03-.04-.04-.02-.02-.06-.06-.08-.08-.02-.02-.06-.06-.08-.08-.01-.01-.03-.03-.04-.04-.02-.02-.06-.06-.08-.08s-.06-.06-.08-.08c-.01-.01-.03-.03-.04-.04-.02-.02-.06-.06-.08-.08s-.06-.06-.08-.08c-.01-.01-.03-.03-.04-.04-.02-.02-.06-.06-.08-.08-.14-.14-.36-.15-.61-.01-.43.24-.78.83-.78,1.32,0,.3.12.5.31.55h0c.19.05.37.1.56.15.19.05.37.1.56.15-.14-.04-.23-.18-.23-.4,0-.36.26-.78.56-.96.18-.1.34-.09.44,0Z"/>
            </g>
            <path class="cls-27" d="m115.27,106.31h-.03q-.34-.15-.5-.22c-.35-.13-.4-.14-.69-.21-.35-.06-.41-.07-.72-.08-.34,0-.41,0-.74.06-.21.05-.47.1-.77.22-.13.06-.31.14-.43.21-.26.16-.28.17-.43.28-.22.17-.22.18-.34.28q-.18.18-.27.28t-.23.29-.19.29-.16.31c-.1.21-.1.22-.14.33-.08.23-.08.24-.12.37-.06.26-.06.27-.08.43-.03.28-.03.31-.04.5,0,.31,0,.34.03.56.04.22.08.47.19.78.12.3.15.37.31.68.19.29.22.35.43.59.25.26.29.3.53.5q.28.22.43.33l.02.02c-.43-.33-.68-.94-.67-1.76.02-1.8,1.3-3.95,2.85-4.82.69-.38,1.31-.45,1.79-.25h0Z"/>
            <path class="cls-27" d="m160.26,135.31c.44-.24.83-.24,1.09-.03h.01c.37.3.41.33,1.05.84.29.23.34.27.78.63q.19.16.51.42c.08.06.15.13.23.19-.2-.17-.5-.18-.84.01-.61.34-1.11,1.19-1.12,1.89,0,.41.15.68.41.77-.09-.03-.18-.07-.28-.1-.18-.07-.18-.07-.62-.23q-.28-.11-.94-.37-.39-.15-1.24-.5h-.02c-.32-.14-.52-.49-.51-1.01.01-.93.67-2.06,1.48-2.5Z"/>
          </g>
          <g>
            <g class="cls-35">
              <path class="cls-31" d="m119.74,114.11c-1.87-1.08-4.38-2.2-5.93-3.01-.24-.12-.46-.25-.67-.37-.51-.29-.92-.57-1.28-.8-.36-.24-.65-.44-.9-.58-.35-.2-.63-.3-.9-.25-.2.04-.2.64,0,.92.26.36.54.58.89.79.25.15.54.28.9.46.36.17.78.39,1.28.68.21.12.43.25.66.4,1.56.98,4.06,2.75,5.93,3.83,1.05.61,1.9.99,2.28.9.27-.06.27-.87,0-1.24-.38-.52-1.23-1.12-2.28-1.72Z"/>
            </g>
            <path class="cls-13" d="m119.65,113.83c-1.87-1.08-4.38-2.2-5.93-3.01-.24-.12-.46-.25-.67-.37-.51-.29-.92-.57-1.28-.8-.36-.24-.65-.44-.9-.58-.35-.2-.63-.3-.9-.25-.2.04-.2.64,0,.92.26.36.54.58.89.79.25.15.54.28.9.46.36.17.78.39,1.28.68.21.12.43.25.66.4,1.56.98,4.06,2.75,5.93,3.83,1.05.61,1.9.99,2.28.9.27-.06.27-.87,0-1.24-.38-.52-1.23-1.12-2.28-1.72Z"/>
            <path class="cls-2" d="m110.19,109.71c.18.09.84.53,1.06.64.43.21.93.46,1.54.81.25.14.51.3.79.48,1.87,1.18,4.86,3.3,7.11,4.6.28.16.54.31.8.44-.45-.12-1.1-.44-1.85-.87-1.87-1.08-4.37-2.85-5.93-3.83-.24-.15-.46-.28-.66-.4-.51-.29-.93-.5-1.28-.68-.36-.17-1.1-.56-1.36-.8-.29-.26-.39-.47-.22-.39Z"/>
            <path class="cls-3" d="m119.97,114.36c-2.12-1.22-4.96-2.49-6.72-3.41-.27-.14-.52-.28-.75-.42-.57-.33-1.05-.64-1.45-.91-.4-.27-.92-.51-.89-.67.02-.06.29-.06.65.14.25.15.54.35.9.58.36.24.77.51,1.28.8.21.12.43.24.67.37,1.56.82,4.06,1.93,5.93,3.01,1.05.61,1.9,1.2,2.28,1.72.02.02.03.05.05.07-.5-.42-1.17-.85-1.94-1.3Z"/>
          </g>
        </g>
        <polygon class="cls-14" points="398.27 52.55 409.66 58 398.27 63.46 386.88 58 398.27 52.55"/>
        <polygon class="cls-14" points="380.31 62.11 391.71 67.56 380.31 73.01 368.93 67.56 380.31 62.11"/>
        <polygon class="cls-14" points="381.19 44.8 392.58 50.25 381.19 55.71 369.8 50.25 381.19 44.8"/>
        <polygon class="cls-14" points="363.23 54.36 374.62 59.81 363.23 65.26 351.84 59.81 363.23 54.36"/>
        <polygon class="cls-14" points="362.31 35.62 373.7 41.07 362.31 46.53 350.92 41.07 362.31 35.62"/>
        <polygon class="cls-14" points="344.35 45.18 355.74 50.63 344.35 56.08 332.96 50.63 344.35 45.18"/>
        <g>
          <g>
            <polygon class="cls-14" points="374.2 14.66 362.81 20.11 362.81 45.42 374.2 39.97 374.2 14.66"/>
            <polygon class="cls-12" points="351.42 14.66 362.81 20.11 362.81 45.42 351.42 39.97 351.42 14.66"/>
            <polygon class="cls-27" points="362.81 9.21 374.2 14.66 362.81 20.11 351.42 14.66 362.81 9.21"/>
          </g>
          <g>
            <polygon class="cls-14" points="392.58 28.12 381.19 33.57 381.19 54.22 392.58 48.77 392.58 28.12"/>
            <polygon class="cls-12" points="369.8 28.12 381.19 33.57 381.19 54.22 369.8 48.77 369.8 28.12"/>
            <polygon class="cls-27" points="381.19 22.67 392.58 28.12 381.19 33.57 369.8 28.12 381.19 22.67"/>
          </g>
          <g>
            <polygon class="cls-14" points="409.66 43.2 398.27 48.65 398.27 62.4 409.66 56.94 409.66 43.2"/>
            <polygon class="cls-12" points="386.88 43.2 398.27 48.65 398.27 62.4 386.88 56.94 386.88 43.2"/>
            <polygon class="cls-27" points="398.27 37.75 409.66 43.2 398.27 48.65 386.88 43.2 398.27 37.75"/>
          </g>
          <g>
            <polygon class="cls-14" points="356.24 24.27 344.85 29.73 344.85 55.03 356.24 49.58 356.24 24.27"/>
            <polygon class="cls-12" points="333.46 24.27 344.85 29.73 344.85 55.03 333.46 49.58 333.46 24.27"/>
            <polygon class="cls-27" points="344.85 18.82 356.24 24.27 344.85 29.73 333.46 24.27 344.85 18.82"/>
          </g>
          <g>
            <polygon class="cls-14" points="374.62 37.74 363.23 43.19 363.23 63.83 374.62 58.38 374.62 37.74"/>
            <polygon class="cls-12" points="351.84 37.74 363.23 43.19 363.23 63.83 351.84 58.38 351.84 37.74"/>
            <polygon class="cls-27" points="363.23 32.28 374.62 37.74 363.23 43.19 351.84 37.74 363.23 32.28"/>
          </g>
          <g>
            <polygon class="cls-14" points="391.71 52.81 380.31 58.27 380.31 72.01 391.71 66.56 391.71 52.81"/>
            <polygon class="cls-12" points="368.93 52.81 380.31 58.27 380.31 72.01 368.93 66.56 368.93 52.81"/>
            <polygon class="cls-27" points="380.31 47.36 391.71 52.81 380.31 58.27 368.93 52.81 380.31 47.36"/>
          </g>
        </g>
      </g>
    </g>
  </g>
</svg>