<?xml version="1.0" encoding="UTF-8"?>
<svg id="Layer_2" data-name="Layer 2" xmlns="http://www.w3.org/2000/svg" viewBox="0 0 468.87 137.87">
  <defs>
    <style>
      .cls-1 {
        fill: #fff;
        stroke-width: 0px;
      }
    </style>
  </defs>
  <g id="Layer_1-2" data-name="Layer 1">
    <g>
      <g>
        <path class="cls-1" d="m462.66,81.87l-.98,28.03c.05,2.76-1.37,5.33-3.72,6.77l-21.72,14.19c-.7.46-1.59-.19-1.38-1,2.8-10.83-1.41-44.25-1.41-44.25l-8.65-.26c-1.12-.03-1.56-1.46-.65-2.11l24.03-17.34s14.65,1.63,14.48,15.97"/>
        <path class="cls-1" d="m385.14,114.39c-.22-.11-.41.19-.21.33,6.71,4.7,24.18,16.85,30.29,20.37,7.63,4.39,14.27,4.45,15.53-6.07v-.02s.75-14.76.75-14.76c.03-.62-.76-.89-1.12-.38-3.5,5.07-15.2,16.06-45.24.52"/>
        <path class="cls-1" d="m398.84,14.74l24.55-13.56c2.34-1.46,5.28-1.57,7.72-.29l23.33,11.34c.76.37.65,1.46-.16,1.7-10.72,3.16-37.23,23.95-37.23,23.95l4.23,7.55c.54.97-.46,2.08-1.48,1.64l-27.22-11.7s-6.13-13.4,6.26-20.63"/>
        <path class="cls-1" d="m466.57,64.52c.02.25.38.25.39,0,.58-8.17,2.03-29.4,1.9-36.45-.16-8.8-3.52-14.53-13.19-10.2,0,0,0,0-.01,0l-13.04,6.94c-.55.29-.37,1.11.25,1.15,6.15.4,21.59,4.78,23.7,38.54"/>
        <path class="cls-1" d="m368.18,105.81l-22.97-16.09c-2.34-1.46-3.72-4.05-3.65-6.81l-.07-25.94c0-.84,1.02-1.23,1.59-.61,7.56,8.24,37.88,22.92,37.88,22.92l4.92-7.12c.63-.92,2.07-.51,2.13.61l1.46,29.59s-9.34,11.4-21.28,3.45"/>
        <path class="cls-1" d="m383.12,23.09c.21-.12.06-.45-.17-.36-7.59,3.07-27.3,11.11-33.58,14.32-7.84,4.01-11.5,9.55-3.36,16.33,0,0,0,0,.01,0l11.97,8.66c.5.36,1.16-.16.92-.73-2.35-5.7-5.19-21.49,24.2-38.23"/>
      </g>
      <path class="cls-1" d="m3.09,81.84h39.09l1.25,9.53h-15.81v46.5h-11.8v-46.5H0v-10.44c.61.32,1.54.9,3.09.9m306.85,15.12c-5.05,0-10.56,2.41-15.76,6.83l-1.01-5.67h-9.08v38.82h11.65v-26.48c5.2-1.71,8.62-2.72,11.88-2.72h3.18l1.16-10.79h-2.02Zm-47.27,17.47h-11.02c.31-7.38,2.17-8.93,8-8.93,5.05,0,6.68,1.24,6.68,4.89,0,2.17-.47,4.04-3.65,4.04m15.06-3.88c-.08-8.93-5.2-13.59-18.48-13.59-14.05,0-19.72,5.2-19.72,20.57,0,14.36,5.51,20.34,20.19,20.34,5.59,0,12.42-.7,17-2.87l-1.16-7.3c-5.28.54-10.95.85-14.44.85-5.9,0-8.54-1.32-9.24-7.14h14.05c8.38,0,11.8-3.8,11.8-10.87m-57.99,3.88h-11.02c.31-7.38,2.17-8.93,8-8.93,5.05,0,6.68,1.24,6.68,4.89,0,2.17-.47,4.04-3.65,4.04m15.06-3.88c-.08-8.93-5.2-13.59-18.48-13.59-14.05,0-19.72,5.2-19.72,20.57,0,14.36,5.51,20.34,20.19,20.34,5.59,0,12.42-.7,17-2.87l-1.17-7.3c-5.28.54-10.95.85-14.44.85-5.9,0-8.54-1.32-9.24-7.14h14.05c8.39,0,11.8-3.8,11.8-10.87m-58.6,12.73c-.47,2.25-.62,4.27-.93,6.44h-.93c-.31-2.17-.7-4.27-1.09-6.44l-3.88-21.66c-.39-2.17-1.94-3.49-4.11-3.49h-8.15c-2.17,0-3.65,1.32-4.04,3.41l-3.96,21.74c-.39,2.17-.7,4.27-1.01,6.44h-1.01c-.16-2.17-.47-4.27-1.01-6.44l-5.28-25.15h-11.72l9.55,35.71c.47,1.94,2.02,3.11,4.04,3.11h9c2.18,0,3.81-1.4,4.19-3.57l3.88-21.97.93-6.52h.93c.47,2.17.54,4.35.93,6.52l3.88,21.97c.39,2.17,2.1,3.57,4.19,3.57h9.16c1.94,0,3.57-1.17,4.04-3.11l9.47-35.71h-11.72l-5.36,25.15Zm-63.65,1.86c-3.34,2.1-5.2,3.11-8.7,3.11-4.58,0-6.44-1.87-6.44-11.18,0-9.78,1.86-11.41,6.83-11.41,3.18,0,5.51.7,8.31,1.48v18.01Zm0-32.76c0,2.72.16,5.51.39,8.07-3.65-2.41-8.07-3.49-12.66-3.49-9.7,0-14.83,4.66-14.83,20.19,0,13.28,3.8,20.73,13.74,20.73,6.83,0,11.72-2.95,14.83-6.6l.93,5.67h9.24v-55.12h-11.65v10.56Zm-45.33,32.99c-3.26,2.49-6.99,3.8-9.63,3.8-3.18,0-4.58-1.32-4.58-4.04v-1.56c0-2.17.93-3.65,3.73-3.65h10.48v5.43Zm-3.57-28.41c-5.44,0-14.6.93-20.26,1.94l1.09,7.84c6.21-.39,12.73-.62,16.38-.62,4.97,0,6.37,1.09,6.37,5.05v1.71h-13.82c-7.45,0-11.88,3.65-11.88,9.86v3.96c0,7.22,5.44,11.18,12.65,11.18,6.83,0,11.57-3.65,14.36-6.83l1.17,5.9h9.24v-25.7c0-10.95-5.28-14.29-15.3-14.29"/>
      <path class="cls-1" d="m298.53,0h-8.93v8.31h8.93V0Zm3.8,16.61v21.58c0,2.8-.86,4.5-2.64,5.2-1.01.39-3.42.62-7.22.62h-52.31c-3.57,0-5.67-.08-6.37-.23-2.17-.54-3.42-1.94-3.96-4.35l-.7-3.26v-.54c0-6.83-1.24-11.57-3.73-14.21-2.41-2.64-6.52-3.96-12.34-3.96h-31.75v10.09h31.75c3.03,0,5.12.54,6.13,1.63,1.09,1.16,1.63,3.34,1.63,6.6,0,2.87-.54,4.89-1.63,6.21-1.17,1.32-3.18,2.02-6.13,2.02h-39.83c0,5.57,4.52,10.09,10.09,10.09h28.26c6.83,0,11.34-1.24,13.51-3.72l.7-.78.39-.47c1.7,3.05,5.32,4.66,10.85,4.92v.05h55.43c5.67,0,10.17-1.32,13.59-3.88,3.65-2.79,5.44-6.83,5.44-12.03v-21.58h-9.16Zm8.77-16.61h-8.93v8.31h8.93V0Zm-154.09,25.62v18.4h-12.42c-8.31,0-8.23-18.4,3.8-18.4h8.62Zm-21.82,26.01c2.02,1.71,5.51,2.56,10.4,2.56h11.41v3.57c0,2.48-.7,4.35-2.17,5.59-1.47,1.24-13.12,1.86-15.68,1.86l4.58,9.24c6.99,0,17.31-2.56,19.72-4.5,2.41-1.94,3.57-5.67,3.57-11.03V16.85h-19.1c-19.95,0-22.28,26.94-12.73,34.78m-32.87,19.33h8.93v-8.31h-8.93v8.31Zm12.58,0h8.93v-8.31h-8.93v8.31Zm-.35-32.76c0,2.8-.86,4.5-2.64,5.2-1.01.39-3.42.62-7.22.62H23.83v-27.33h-10.02v40.22c0,2.64-.47,4.58-1.47,5.74-1.01,1.17-2.72,1.79-5.2,1.79-3.49,0-5.67-.31-6.68-.93l-.47-.23v8.93c1.94.39,4.42.62,7.3.62,5.9,0,10.17-1.09,12.73-3.26,2.56-2.25,3.8-5.67,3.8-10.33v-5.12h80.86c5.67,0,10.17-1.32,13.59-3.88,3.65-2.79,5.43-6.83,5.43-12.03v-21.58h-9.16v21.58Z"/>
    </g>
  </g>
</svg>