<?xml version="1.0" encoding="UTF-8"?>
<svg id="Layer_2" data-name="Layer 2" xmlns="http://www.w3.org/2000/svg" viewBox="0 0 173.03 85.28">
  <defs>
    <style>
      .cls-1 {
        fill: #fff;
      }
    </style>
  </defs>
  <g id="Layer_1-2" data-name="Layer 1">
    <g>
      <g>
        <path class="cls-1" d="m170.66,30.2l-.36,10.34c.02,1.02-.51,1.97-1.37,2.5l-8.01,5.23c-.26.17-.59-.07-.51-.37,1.03-3.99-.52-16.32-.52-16.32l-3.19-.09c-.41-.01-.57-.54-.24-.78l8.86-6.39s5.4.6,5.34,5.89"/>
        <path class="cls-1" d="m142.06,42.19c-.08-.04-.15.07-.08.12,2.48,1.73,8.92,6.21,11.17,7.51,2.81,1.62,5.26,1.64,5.73-2.24h0s.28-5.45.28-5.45c.01-.23-.28-.33-.41-.14-1.29,1.87-5.61,5.92-16.69.19"/>
        <path class="cls-1" d="m147.11,5.44l9.06-5c.86-.54,1.95-.58,2.85-.11l8.61,4.18c.28.14.24.54-.06.63-3.96,1.17-13.73,8.83-13.73,8.83l1.56,2.79c.2.36-.17.77-.55.61l-10.04-4.32s-2.26-4.94,2.31-7.61"/>
        <path class="cls-1" d="m172.1,23.8c0,.09.14.09.15,0,.21-3.01.75-10.85.7-13.45-.06-3.25-1.3-5.36-4.86-3.76,0,0,0,0,0,0l-4.81,2.56c-.2.11-.14.41.09.43,2.27.15,7.96,1.76,8.74,14.22"/>
        <path class="cls-1" d="m135.81,39.03l-8.47-5.93c-.86-.54-1.37-1.49-1.35-2.51l-.03-9.57c0-.31.38-.45.59-.22,2.79,3.04,13.97,8.45,13.97,8.45l1.82-2.62c.23-.34.76-.19.78.22l.54,10.91s-3.45,4.21-7.85,1.27"/>
        <path class="cls-1" d="m141.32,8.52c.08-.05.02-.17-.06-.13-2.8,1.13-10.07,4.1-12.39,5.28-2.89,1.48-4.24,3.52-1.24,6.02,0,0,0,0,0,0l4.42,3.2c.18.13.43-.06.34-.27-.87-2.1-1.92-7.93,8.93-14.1"/>
      </g>
      <path class="cls-1" d="m1.14,30.19h14.42l.46,3.52h-5.83v17.15h-4.35v-17.15H0v-3.85c.23.12.57.33,1.14.33m113.18,5.58c-1.86,0-3.9.89-5.81,2.52l-.37-2.09h-3.35v14.32h4.3v-9.77c1.92-.63,3.18-1,4.38-1h1.17l.43-3.98h-.74Zm-17.44,6.44h-4.07c.11-2.72.8-3.29,2.95-3.29,1.86,0,2.46.46,2.46,1.8,0,.8-.17,1.49-1.35,1.49m5.56-1.43c-.03-3.29-1.92-5.01-6.82-5.01-5.18,0-7.27,1.92-7.27,7.59,0,5.3,2.03,7.5,7.45,7.5,2.06,0,4.58-.26,6.27-1.06l-.43-2.69c-1.95.2-4.04.31-5.33.31-2.18,0-3.15-.49-3.41-2.63h5.18c3.09,0,4.35-1.4,4.35-4.01m-21.39,1.43h-4.07c.11-2.72.8-3.29,2.95-3.29,1.86,0,2.46.46,2.46,1.8,0,.8-.17,1.49-1.35,1.49m5.56-1.43c-.03-3.29-1.92-5.01-6.82-5.01-5.18,0-7.27,1.92-7.27,7.59,0,5.3,2.03,7.5,7.45,7.5,2.06,0,4.58-.26,6.27-1.06l-.43-2.69c-1.95.2-4.04.31-5.33.31-2.18,0-3.15-.49-3.41-2.63h5.18c3.09,0,4.35-1.4,4.35-4.01m-21.62,4.7c-.17.83-.23,1.57-.34,2.38h-.34c-.11-.8-.26-1.57-.4-2.38l-1.43-7.99c-.14-.8-.72-1.29-1.52-1.29h-3.01c-.8,0-1.35.49-1.49,1.26l-1.46,8.02c-.14.8-.26,1.57-.37,2.38h-.37c-.06-.8-.17-1.57-.37-2.38l-1.95-9.28h-4.32l3.52,13.17c.17.72.74,1.15,1.49,1.15h3.32c.8,0,1.4-.52,1.55-1.32l1.43-8.1.34-2.41h.34c.17.8.2,1.6.34,2.41l1.43,8.1c.14.8.77,1.32,1.55,1.32h3.38c.72,0,1.32-.43,1.49-1.15l3.49-13.17h-4.32l-1.98,9.28Zm-23.48.69c-1.23.77-1.92,1.15-3.21,1.15-1.69,0-2.38-.69-2.38-4.12,0-3.61.69-4.21,2.52-4.21,1.17,0,2.03.26,3.06.54v6.64Zm0-12.09c0,1,.06,2.03.14,2.98-1.35-.89-2.98-1.29-4.67-1.29-3.58,0-5.47,1.72-5.47,7.45,0,4.9,1.4,7.65,5.07,7.65,2.52,0,4.32-1.09,5.47-2.43l.34,2.09h3.41v-20.33h-4.3v3.89Zm-16.72,12.17c-1.2.92-2.58,1.4-3.55,1.4-1.17,0-1.69-.49-1.69-1.49v-.57c0-.8.34-1.35,1.37-1.35h3.87v2Zm-1.32-10.48c-2,0-5.38.34-7.47.72l.4,2.89c2.29-.14,4.7-.23,6.04-.23,1.83,0,2.35.4,2.35,1.86v.63h-5.1c-2.75,0-4.38,1.35-4.38,3.64v1.46c0,2.66,2,4.12,4.67,4.12,2.52,0,4.27-1.35,5.3-2.52l.43,2.18h3.41v-9.48c0-4.04-1.95-5.27-5.64-5.27"/>
      <path class="cls-1" d="m110.11,0h-3.29v3.06h3.29V0Zm1.4,6.13v7.96c0,1.03-.32,1.66-.97,1.92-.37.14-1.26.23-2.66.23h-19.3c-1.32,0-2.09-.03-2.35-.09-.8-.2-1.26-.72-1.46-1.6l-.26-1.2v-.2c0-2.52-.46-4.27-1.37-5.24-.89-.97-2.41-1.46-4.55-1.46h-11.71v3.72h11.71c1.12,0,1.89.2,2.26.6.4.43.6,1.23.6,2.43,0,1.06-.2,1.8-.6,2.29-.43.49-1.17.74-2.26.74h-14.69c0,2.06,1.67,3.72,3.72,3.72h10.42c2.52,0,4.18-.46,4.98-1.37l.26-.29.14-.17c.63,1.13,1.96,1.72,4,1.81v.02h20.45c2.09,0,3.75-.49,5.01-1.43,1.35-1.03,2-2.52,2-4.44v-7.96h-3.38Zm3.24-6.13h-3.29v3.06h3.29V0Zm-56.84,9.45v6.79h-4.58c-3.06,0-3.04-6.79,1.4-6.79h3.18Zm-8.05,9.59c.75.63,2.03.94,3.84.94h4.21v1.32c0,.92-.26,1.6-.8,2.06-.54.46-4.84.69-5.78.69l1.69,3.41c2.58,0,6.39-.94,7.27-1.66.89-.72,1.32-2.09,1.32-4.07V6.21h-7.05c-7.36,0-8.22,9.94-4.7,12.83m-12.13,7.13h3.29v-3.06h-3.29v3.06Zm4.64,0h3.29v-3.06h-3.29v3.06Zm-.13-12.08c0,1.03-.32,1.66-.97,1.92-.37.14-1.26.23-2.66.23H8.79V6.16h-3.69v14.83c0,.97-.17,1.69-.54,2.12-.37.43-1,.66-1.92.66-1.29,0-2.09-.11-2.46-.34l-.17-.09v3.29c.72.14,1.63.23,2.69.23,2.18,0,3.75-.4,4.7-1.2.94-.83,1.4-2.09,1.4-3.81v-1.89h29.83c2.09,0,3.75-.49,5.01-1.43,1.35-1.03,2-2.52,2-4.44v-7.96h-3.38v7.96Z"/>
      <g>
        <rect class="cls-1" x="3.53" y="63.09" width="1.17" height="1.09"/>
        <path class="cls-1" d="m7.87,68.01H1.98c-.33,0-.57-.09-.73-.28-.15-.19-.23-.46-.23-.79,0-.4.08-.69.25-.87.17-.19.43-.28.76-.28v-1.27c-.74,0-1.24.12-1.51.38-.36.34-.53,1.05-.53,2.13,0,.92.12,1.54.38,1.86.25.32.74.48,1.44.48h7.22v-4.91h-1.17v3.58Z"/>
        <rect class="cls-1" x="5.18" y="63.09" width="1.17" height="1.09"/>
        <path class="cls-1" d="m22.64,67.26c0,.37-.11.59-.35.68-.13.05-.45.08-.95.08h-.73s-2.73,0-2.73,0h-5.86c-.29-.04-.49-.1-.6-.17-.17-.11-.26-.31-.26-.59v-5.45h-1.31v5.76c0,.61.16,1.06.5,1.35.31.26.79.4,1.47.42h0s.17,0,.17,0c0,0,.01,0,.02,0h.21s2.32,0,2.32,0h5.45s1.34,0,1.34,0c.74,0,1.33-.17,1.78-.51.48-.37.71-.9.71-1.58v-2.83h-1.2v2.83Z"/>
        <rect class="cls-1" x="20.56" y="70.47" width="1.17" height="1.09"/>
        <rect class="cls-1" x="22.21" y="70.47" width="1.17" height="1.09"/>
        <rect class="cls-1" x="37.28" y="62.26" width="1.17" height="1.09"/>
        <rect class="cls-1" x="41.99" y="62.27" width="1.17" height="1.09"/>
        <path class="cls-1" d="m53.33,67.26c0,.27-.08.48-.25.59-.11.07-.31.13-.61.17h-8.04c-.46,0-.76-.03-.88-.08-.23-.09-.35-.33-.35-.68v-2.83h-1.29v2.83c0,.36-.11.59-.35.68-.13.05-.43.08-.89.08h-.47c.05-.22.08-.48.08-.76v-.69c0-.79-.18-1.34-.56-1.66-.38-.32-.99-.48-1.84-.48s-1.42.16-1.81.49c-.38.32-.56.86-.56,1.65v.69c0,.28.03.54.08.76h-.18s-2.73,0-2.73,0h-5.86c-.29-.04-.49-.1-.6-.17-.17-.11-.26-.31-.26-.59v-5.45h-1.31v5.76c0,.61.16,1.06.5,1.35.31.26.79.4,1.47.42h0s.17,0,.17,0c0,0,.01,0,.02,0h.21s2.32,0,2.32,0h5.45s6.23,0,6.23,0v-.02c.64-.06,1.15-.27,1.52-.63.4.39.92.6,1.54.64h0s.24,0,.24,0c0,0,0,0,.01,0h.15s2.32,0,2.32,0h5.45s.21,0,.21,0c.01,0,.02,0,.03,0h.37c.57-.06,1-.19,1.27-.43.34-.29.5-.74.5-1.35v-5.76h-1.31v5.45Zm-14.37-.02c0,.38-.1.65-.31.82-.17.12-.43.18-.77.18-.7,0-1.05-.34-1.05-1.01v-.65c0-.71.36-1.07,1.07-1.07.37,0,.63.08.8.23.17.16.25.44.25.83v.65Z"/>
        <rect class="cls-1" x="55.45" y="61.81" width="1.31" height="7.54"/>
        <rect class="cls-1" x="62.43" y="62.26" width="1.17" height="1.09"/>
        <rect class="cls-1" x="60.78" y="62.26" width="1.17" height="1.09"/>
        <path class="cls-1" d="m64.05,64.87c-.38-.29-.97-.45-1.79-.45s-1.4.15-1.78.46c-.4.34-.6.88-.6,1.64v.7c0,.78.18,1.33.56,1.65.38.32.99.48,1.85.48s1.42-.16,1.8-.48c.38-.32.57-.86.57-1.65v-.7c0-.77-.2-1.32-.61-1.65Zm-.71,2.32c0,.72-.36,1.08-1.08,1.08-.37,0-.63-.08-.8-.24-.17-.16-.25-.44-.25-.83v-.65c0-.38.1-.65.31-.81.17-.13.43-.19.77-.19.7,0,1.05.34,1.05,1.01v.65Z"/>
        <path class="cls-1" d="m66.87,69.71c0,.35-.06.6-.19.75-.13.15-.36.23-.68.23-.46,0-.74-.04-.87-.12l-.06-.03v1.17c.25.05.58.08.96.08.77,0,1.33-.14,1.67-.43.34-.29.5-.74.5-1.35v-5.57h-1.31v5.27Z"/>
        <rect class="cls-1" x="69" y="61.81" width="1.31" height="7.54"/>
        <path class="cls-1" d="m76.33,64.54h-4.15v1.32h4.15c.4,0,.67.07.81.21.14.15.21.44.21.86,0,.38-.07.64-.21.81-.15.17-.42.26-.81.26h-5.21v1.32h5.21c.8,0,1.36-.19,1.68-.59.29-.36.44-.97.44-1.83s-.16-1.52-.49-1.86c-.32-.35-.86-.52-1.63-.52Z"/>
        <path class="cls-1" d="m81.5,67.31c0,.22-.08.41-.24.55l-.73-4.56h-1.26l.76,4.72c-.15-.05-.28-.13-.38-.23v1.35c.42.17.89.24,1.41.19.52-.05.93-.2,1.21-.45.31-.28.47-.71.47-1.29v-5.79h-1.24v5.5Z"/>
        <path class="cls-1" d="m80.76,70.8c-.23-.18-.3-.33-.2-.44.04-.04.22-.07.54-.07v-.38h-.45c-.37,0-.57.15-.64.45-.07.31.05.52.36.64-.16,0-.29.05-.4.15l.12.42c.19-.11.59-.14,1.16-.12l.05-.31-.24-.15c-.14-.07-.22-.14-.3-.19Z"/>
        <rect class="cls-1" x="91.15" y="72.67" width="1.17" height="1.09"/>
        <rect class="cls-1" x="89.5" y="72.67" width="1.17" height="1.09"/>
        <rect class="cls-1" x="108.36" y="70.47" width="1.17" height="1.09"/>
        <rect class="cls-1" x="115.39" y="62.26" width="1.17" height="1.09"/>
        <path class="cls-1" d="m117.55,65.03l-3.71-.53c-.19-.03-.38-.04-.55-.04-.11,0-.21.01-.32.02v-2.67h-1.31v6.22h-.76c-.5,0-.82-.03-.94-.08-.23-.09-.36-.31-.36-.68v-2.83h-1.28v2.83c0,.37-.12.59-.36.68-.13.05-.42.08-.88.08h-11.07s-4.42,0-4.42,0v1.32h2.4c.24,0,.38.1.39.25.01.11,0,.25-.05.4-.04.11-.1.21-.19.29-.15.14-.4.21-.71.21h-5.59c-.34,0-.58-.09-.73-.29-.16-.19-.24-.46-.24-.79,0-.4.09-.69.26-.88.17-.18.43-.27.75-.27v-1.26c-.73,0-1.23.12-1.49.37-.36.34-.53,1.05-.53,2.12,0,.92.13,1.54.39,1.85.25.32.73.48,1.43.48h6.06c.64,0,1.1-.11,1.36-.34.26-.22.46-.64.51-1.24l.03-.36v-.55h.79s2.31,0,2.31,0h8.18s.1,0,.1,0c0,0,.01,0,.02,0h.49v-.03c.6-.07,1.07-.28,1.43-.62.4.38.94.59,1.64.64h0s.3,0,.3,0c0,0,0,0,0,0h.1s6.12,0,6.12,0c.72,0,1.21-.17,1.52-.52.29-.34.46-.89.46-1.64s-.11-1.26-.35-1.58c-.21-.31-.62-.5-1.21-.58Zm.49,2.15c0,.56-.33.84-.97.84h-4.1l.05-1.5c.01-.31.08-.5.19-.57.12-.08.36-.12.7-.12l3.26.49c.58.09.86.31.86.7v.15Z"/>
        <path class="cls-1" d="m131.93,67.26c0,.37-.11.59-.35.68-.13.05-.42.08-.88.08h-5.62s-.3,0-.3,0v-3.56h-2.5c-2.61,0-2.92,3.53-1.67,4.56.26.22.72.34,1.36.34h1.49v.47c0,.33-.09.57-.28.73-.19.16-1.72.24-2.05.24l.6,1.21c.92,0,2.27-.34,2.58-.59.32-.25.47-.74.47-1.44v-.63h.71s2.32,0,2.32,0h2.73s.1,0,.1,0c0,0,0,0,0,0h.5v-.03c.51-.06.93-.22,1.27-.48.48-.37.71-.9.71-1.58v-2.83h-1.2v2.83Zm-8.46.76h-1.63c-1.09,0-1.08-2.41.5-2.41h1.13v2.41Z"/>
        <rect class="cls-1" x="131.23" y="70.47" width="1.17" height="1.09"/>
        <path class="cls-1" d="m134.73,60.25c-.25-.2-.34-.37-.22-.5.05-.04.24-.08.61-.08v-.43h-.51c-.42,0-.64.16-.72.51-.08.35.06.58.41.72-.18,0-.32.05-.45.16l.13.47c.21-.12.66-.15,1.3-.13l.05-.35-.26-.16c-.15-.08-.24-.15-.34-.21Z"/>
        <rect class="cls-1" x="133.94" y="61.81" width="1.31" height="7.54"/>
        <rect class="cls-1" x="140.72" y="62.26" width="1.17" height="1.09"/>
        <rect class="cls-1" x="138.98" y="62.26" width="1.17" height="1.09"/>
        <rect class="cls-1" x="168.1" y="59.5" width="1.17" height="1.09"/>
        <rect class="cls-1" x="168.97" y="61.16" width="1.17" height="1.09"/>
        <rect class="cls-1" x="167.23" y="61.16" width="1.17" height="1.09"/>
        <path class="cls-1" d="m153.93,65.75l-1.89-1.22c-.16-.1-.28-.2-.35-.31-.07-.13-.1-.26-.08-.41.02-.21.12-.38.28-.48.11-.09.36-.15.74-.17l2.09-.13v-1.18l-2.79.14c-.57.03-.99.17-1.24.47-.28.32-.42.85-.42,1.58,0,.38.08.67.23.88.13.18.45.43.94.73l1.63,1.01c.14.09.23.19.28.31.03.1.05.27.05.51,0,.38-.32.56-.94.56h-2.9s-2.11,0-2.11,0h-2.07s-1.94,0-1.94,0h-.01c-.06,0-.1,0-.13,0-.03-.08-.04-.15-.06-.22l-.37-2.05c-.11-.63-.27-.99-.53-1.18-.34-.26-.84-.38-1.53-.38-.81,0-1.38.13-1.75.4-.32.23-.71.72-.7,1.71v1.04c0,.25.02.59.08.83.05.2.16.4.32.59.21.24.43.4.68.47.24.09.57.13,1.06.13h4.88s1.46,0,1.46,0h2.73s3.53,0,3.53,0c.59,0,1.03-.15,1.3-.47.27-.31.42-.82.42-1.56,0-.46-.05-.77-.14-.95-.1-.17-.35-.38-.73-.63Zm-13.33,2.28c-.52,0-.72-.11-.79-.17-.11-.11-.18-.26-.18-.57v-.96c0-.6.23-.74.31-.79.1-.06.36-.17.93-.17.24,0,.42.05.53.16.07.07.16.22.22.55l.34,1.96h-1.36Z"/>
        <path class="cls-1" d="m171.68,63.87v3.19c0,.26-.04.6-.26.78-.33.27-.76.36-1.31.25-.68-.12-.76-.48-.76-.74v-2.88h-1.31v2.88c0,.26-.08.61-.76.74-.53.1-.97.01-1.3-.26-.18-.15-.26-.4-.26-.77v-3.19h-1.35v3.31c0,.29.04.54.11.77-.19.05-.44.07-.75.07h-5.1s-.29,0-.29,0v-3.58h-1.31v5.27c0,.35-.06.6-.19.75-.13.15-.36.23-.68.23-.46,0-.74-.04-.88-.12l-.06-.03v1.17c.25.05.58.08.96.08.77,0,1.33-.14,1.67-.43.34-.29.5-.74.5-1.35v-.67h.7s1.82,0,1.82,0h.02s2.34,0,2.34,0h.46l.51-.02c.37-.03.68-.09.92-.18.08-.03.16-.07.23-.1.34.18.77.28,1.3.31.6.02,1.09-.06,1.51-.23.21-.09.39-.22.56-.39.16.17.35.3.56.39.39.16.83.24,1.31.24.09,0,.19,0,.29,0,.67-.04,1.18-.21,1.55-.53.42-.36.63-.91.63-1.63v-3.31s-1.35,0-1.35,0Z"/>
      </g>
      <path class="cls-1" d="m2.88,78.03c-.05.2-.08.41-.15.6l-.53,1.96h1.58l-.54-1.96c-.06-.19-.1-.4-.13-.6h-.25Zm.78-1.06c.24,0,.42.14.49.36l1.84,6.01h-1.44l-.46-1.67H1.9l-.46,1.67H0l1.84-6.01c.07-.23.26-.36.49-.36h1.33Z"/>
      <path class="cls-1" d="m7.84,80.14v2.21c.31.07.66.1.93.09.62-.02.85-.33.85-1.41,0-.98-.14-1.28-.81-1.28-.36,0-.63.16-.96.39m0-1.81c0,.37-.03.74-.12,1.07.44-.45,1.02-.75,1.62-.75,1.17,0,1.67.67,1.67,2.37,0,1.4-.4,2.43-2.22,2.43-.65,0-1.76-.11-2.32-.35v-6.23h1.37v1.45Z"/>
      <path class="cls-1" d="m15.13,83.34l-.1-.63c-.64.51-1.23.75-1.88.75-.85,0-1.28-.42-1.28-1.27v-3.41h1.37v2.99c0,.4.12.54.49.54.33,0,.65-.13,1.14-.37v-3.15h1.36v4.55h-1.08Z"/>
      <path class="cls-1" d="m20.74,82.31c.33,0,.68,0,1.07,0,.96,0,1.24-.48,1.24-2.16s-.28-2.19-1.24-2.18h-1.07v4.32Zm3.79-2.15c0,2.52-.71,3.27-2.71,3.27-.96,0-1.75-.04-2.48-.08v-6.37c.73-.05,1.5-.08,2.48-.08,2,0,2.71.75,2.71,3.27"/>
      <path class="cls-1" d="m26.84,78.45c0,.35-.04.68-.08.96.61-.48,1.25-.76,1.87-.76.83,0,1.28.45,1.28,1.27v3.42h-1.36v-3c0-.42-.11-.54-.45-.54-.36,0-.73.13-1.27.42v3.11h-1.37v-6.46h1.37v1.58Z"/>
      <path class="cls-1" d="m32.49,81.35c-.33,0-.44.17-.44.43v.18c0,.32.16.47.54.47.31,0,.75-.16,1.13-.45v-.64h-1.23Zm2.6-1.02v3.01h-1.08l-.14-.69c-.33.37-.88.8-1.68.8-.85,0-1.48-.46-1.48-1.31v-.46c0-.73.52-1.16,1.39-1.16h1.62v-.2c0-.46-.16-.59-.75-.59-.43,0-1.19.03-1.92.07l-.13-.92c.66-.12,1.74-.23,2.38-.23,1.17,0,1.79.39,1.79,1.68"/>
      <path class="cls-1" d="m37.45,80.14v2.21c.31.07.66.1.93.09.62-.02.85-.33.85-1.41,0-.98-.14-1.28-.81-1.28-.36,0-.63.16-.96.39m0-1.81c0,.37-.03.74-.12,1.07.44-.45,1.02-.75,1.62-.75,1.17,0,1.67.67,1.67,2.37,0,1.4-.4,2.43-2.22,2.43-.65,0-1.76-.11-2.32-.35v-6.23h1.37v1.45Z"/>
      <path class="cls-1" d="m41.54,78.79h1.36v4.55h-1.36v-4.55Zm.98-2.02c.26,0,.39.15.39.4v.5c0,.26-.13.39-.39.39h-.61c-.27,0-.4-.13-.4-.39v-.5c0-.26.13-.4.4-.4h.61Z"/>
      <path class="cls-1" d="m53.15,82.95c-.04.24-.26.39-.51.39h-1.35c-.26,0-.46-.15-.5-.4l-.69-4.16c-.05-.27-.09-.54-.12-.81h-.17c-.04.27-.06.55-.11.82l-.68,4.15c-.04.25-.26.4-.51.4h-1.35c-.25,0-.47-.15-.51-.39l-1.01-5.98h1.45l.62,4.42c.04.27.06.58.08.92h.18c.04-.3.09-.64.14-.92l.69-4c.05-.26.23-.43.49-.43h1.22c.26,0,.45.17.49.43l.68,4.01c.05.29.1.63.13.91h.2c.02-.29.05-.63.08-.9l.63-4.44h1.43l-1,5.98Z"/>
      <path class="cls-1" d="m56.45,81.35c-.33,0-.44.17-.44.43v.18c0,.32.16.47.54.47.31,0,.75-.16,1.13-.45v-.64h-1.23Zm2.6-1.02v3.01h-1.08l-.14-.69c-.33.37-.88.8-1.68.8-.85,0-1.48-.46-1.48-1.31v-.46c0-.73.52-1.16,1.39-1.16h1.62v-.2c0-.46-.16-.59-.75-.59-.43,0-1.19.03-1.92.07l-.13-.92c.66-.12,1.74-.23,2.38-.23,1.17,0,1.79.39,1.79,1.68"/>
      <path class="cls-1" d="m63.89,78.84l-.09.87c-.58,0-1.18-.02-1.76-.02-.71,0-.87,0-.87.31,0,.27.16.28.6.4l1.17.32c.77.21,1.12.54,1.12,1.33,0,1.13-.62,1.39-2.09,1.39-.35,0-1.17,0-2.04-.15l.08-.89c.33.03.97.03,1.57.03.94,0,1.15-.05,1.15-.35s-.19-.31-.65-.43l-1.14-.3c-.87-.24-1.1-.67-1.1-1.38,0-.96.51-1.32,1.94-1.31.66,0,1.54.08,2.1.18"/>
      <path class="cls-1" d="m67.9,78.79v.91h-1.27v2.16c0,.34.13.46.5.46h.58l.15.96c-.35.12-.97.18-1.28.18-.83,0-1.3-.48-1.3-1.31v-2.44h-.81v-.87l.81-.05v-1.27h1.36v1.27h1.27Z"/>
      <path class="cls-1" d="m69.82,80.7h1.29c.37,0,.43-.22.43-.47,0-.43-.19-.57-.78-.57-.68,0-.9.18-.94,1.05m3.06-.46c0,.83-.4,1.27-1.38,1.27h-1.65c.08.68.39.84,1.08.84.41,0,1.07-.04,1.69-.1l.14.86c-.54.26-1.34.34-1.99.34-1.72,0-2.37-.7-2.37-2.39,0-1.8.67-2.41,2.31-2.41,1.56,0,2.16.55,2.17,1.59"/>
      <path class="cls-1" d="m82.24,76.97c.34,0,.5.18.52.53l.26,5.85h-1.33l-.22-5.28h-.15l-.96,3.95c-.08.3-.26.46-.57.46h-.93c-.31,0-.5-.15-.57-.46l-.97-3.95h-.16l-.18,5.28h-1.33l.23-5.85c0-.35.19-.53.53-.53h1.36c.31,0,.48.15.56.45l.77,3.19c.08.3.13.6.17.89h.12c.05-.29.09-.59.16-.89l.76-3.19c.08-.29.26-.45.57-.45h1.37Z"/>
      <path class="cls-1" d="m85.58,81.35c-.33,0-.44.17-.44.43v.18c0,.32.16.47.54.47.31,0,.75-.16,1.13-.45v-.64h-1.23Zm2.6-1.02v3.01h-1.08l-.14-.69c-.33.37-.88.8-1.68.8-.85,0-1.48-.46-1.48-1.31v-.46c0-.73.52-1.16,1.39-1.16h1.62v-.2c0-.46-.16-.59-.75-.59-.43,0-1.19.03-1.92.07l-.13-.92c.66-.12,1.74-.23,2.38-.23,1.17,0,1.79.39,1.79,1.68"/>
      <path class="cls-1" d="m93.63,79.92v3.42h-1.36v-3c0-.42-.11-.54-.45-.54-.36,0-.73.15-1.27.42v3.11h-1.37v-4.55h1.11l.1.67c.64-.52,1.3-.81,1.95-.81.83,0,1.27.45,1.27,1.27"/>
      <path class="cls-1" d="m159.65,81.35c-.33,0-.44.17-.44.43v.18c0,.32.16.47.54.47.31,0,.75-.16,1.13-.45v-.64h-1.23Zm2.6-1.02v3.01h-1.08l-.14-.69c-.33.37-.88.8-1.68.8-.85,0-1.48-.46-1.48-1.31v-.46c0-.73.52-1.16,1.39-1.16h1.62v-.2c0-.46-.16-.59-.75-.59-.43,0-1.19.03-1.92.07l-.13-.92c.66-.12,1.74-.23,2.38-.23,1.17,0,1.79.39,1.79,1.68"/>
      <path class="cls-1" d="m167.7,79.92v3.42h-1.36v-3c0-.42-.11-.54-.45-.54-.36,0-.73.15-1.27.42v3.11h-1.37v-4.55h1.11l.1.67c.64-.52,1.3-.81,1.95-.81.83,0,1.27.45,1.27,1.27"/>
      <path class="cls-1" d="m96.21,81.35c-.33,0-.44.17-.44.43v.18c0,.32.16.47.54.47.31,0,.75-.16,1.13-.45v-.64h-1.23Zm2.6-1.02v3.01h-1.08l-.14-.69c-.33.37-.88.8-1.68.8-.85,0-1.48-.46-1.48-1.31v-.46c0-.73.52-1.16,1.39-1.16h1.62v-.2c0-.46-.16-.59-.75-.59-.43,0-1.19.03-1.92.07l-.13-.92c.66-.12,1.74-.23,2.38-.23,1.17,0,1.79.39,1.79,1.68"/>
      <path class="cls-1" d="m100.94,80.12c0,.44.21.59.88.59s.88-.15.88-.59-.21-.58-.88-.58-.88.13-.88.58m.15,2.93c-.2.16-.3.29-.3.52,0,.46.21.52,1.08.52s1.11-.08,1.11-.5c0-.33-.16-.36-.75-.42l-1.15-.12Zm1.94-4.26h1.47l-.06.6-.57.07c.08.17.12.39.12.66,0,1.04-.54,1.46-2.15,1.46-.29,0-.56-.02-.78-.05-.12.19-.08.51.26.55l1.66.19c.96.11,1.32.54,1.32,1.36,0,1.18-.64,1.48-2.4,1.48-1.89,0-2.4-.35-2.4-1.36,0-.47.2-.75.73-.99-.43-.4-.3-1.15.15-1.4-.48-.23-.67-.62-.67-1.23,0-1.07.55-1.47,2.15-1.47.5,0,.89.05,1.19.14"/>
      <path class="cls-1" d="m106.34,80.7h1.29c.37,0,.43-.22.43-.47,0-.43-.19-.57-.78-.57-.68,0-.9.18-.94,1.05m3.06-.46c0,.83-.4,1.27-1.38,1.27h-1.65c.08.68.39.84,1.08.84.41,0,1.07-.04,1.69-.1l.14.86c-.54.26-1.34.34-1.99.34-1.72,0-2.37-.7-2.37-2.39,0-1.8.66-2.41,2.31-2.41,1.56,0,2.16.55,2.17,1.59"/>
      <path class="cls-1" d="m117.23,79.92v3.42h-1.36v-3c0-.38-.11-.54-.48-.54-.3,0-.52.1-1.01.41v3.12h-1.31v-3c0-.41-.15-.54-.49-.54-.3,0-.51.09-1.01.4v3.13h-1.36v-4.55h1.09l.09.66c.57-.53,1.09-.8,1.74-.8.61,0,1,.25,1.17.75.54-.5,1.05-.75,1.66-.75.83,0,1.27.45,1.27,1.27"/>
      <path class="cls-1" d="m119.48,80.7h1.29c.37,0,.43-.22.43-.47,0-.43-.19-.57-.78-.57-.68,0-.9.18-.94,1.05m3.06-.46c0,.83-.4,1.27-1.38,1.27h-1.65c.08.68.39.84,1.08.84.41,0,1.07-.04,1.69-.1l.14.86c-.54.26-1.34.34-1.99.34-1.72,0-2.37-.7-2.37-2.39,0-1.8.67-2.41,2.31-2.41,1.56,0,2.16.55,2.17,1.59"/>
      <path class="cls-1" d="m127.78,79.92v3.42h-1.36v-3c0-.42-.11-.54-.45-.54-.36,0-.73.15-1.27.42v3.11h-1.37v-4.55h1.11l.1.67c.64-.52,1.3-.81,1.95-.81.83,0,1.27.45,1.27,1.27"/>
      <path class="cls-1" d="m131.85,78.79v.91h-1.27v2.16c0,.34.13.46.5.46h.58l.15.96c-.35.12-.97.18-1.28.18-.83,0-1.3-.48-1.3-1.31v-2.44h-.81v-.87l.81-.05v-1.27h1.36v1.27h1.27Z"/>
      <path class="cls-1" d="m150.67,78.65c-.61,0-1.12.25-1.66.75-.17-.49-.56-.75-1.17-.75-.65,0-1.17.27-1.74.8l-.09-.66h-1.09v4.55h1.36v-3.13c.5-.31.71-.4,1.01-.4.34,0,.49.13.49.54v3h1.31v-3.12c.49-.31.71-.41,1.01-.41.37,0,.48.15.48.54v3h1.36v-3.42c0-.82-.44-1.27-1.27-1.27Z"/>
      <path class="cls-1" d="m171.87,78.97l-1.22,3.25-.03.08c-.03.08-.06.16-.09.24-.03-.11-.07-.22-.11-.32l-1.23-3.24h-1.15l1.73,4.23c.06.17.21.27.38.28-.22.54-.59.85-1.24,1.03l-.12.03.12.73h.12c.97-.05,1.66-.59,2.1-1.65l1.89-4.66h-1.16Z"/>
      <path class="cls-1" d="m155.56,78.87c-.62,0-1.27.24-1.77.64l-.05-.58h-.95v6.35h1.1v-1.41c0-.22,0-.41-.01-.62.47.23.98.34,1.52.34,1.3,0,1.85-.7,1.85-2.34s-.55-2.38-1.7-2.38Zm.61,2.38c0,1.23-.28,1.42-.96,1.42-.43,0-.8-.08-1.32-.23v-2.07c.62-.43,1-.59,1.41-.59.56,0,.87.23.87,1.46Z"/>
      <path class="cls-1" d="m141.83,78.87c-1.63,0-2.26.66-2.26,2.36s.63,2.37,2.26,2.37,2.27-.66,2.27-2.37-.64-2.36-2.27-2.36Zm0,.9c.92,0,1.17.31,1.17,1.46s-.25,1.47-1.17,1.47-1.16-.32-1.16-1.47c0-1.26.34-1.46,1.16-1.46Z"/>
      <path class="cls-1" d="m138.89,77.23l-.12,1.04c-.59-.04-.97-.05-1.76-.05-.9,0-1.18.46-1.18,2.04s.28,2.04,1.18,2.04c.83,0,1.33,0,1.88-.08l.12,1.03c-.58.18-1.1.25-2,.25-1.93,0-2.62-.85-2.62-3.23s.7-3.24,2.62-3.24c.88,0,1.3.07,1.87.21"/>
    </g>
  </g>
</svg>