<?xml version="1.0" encoding="UTF-8"?>
<svg id="Layer_2" data-name="Layer 2" xmlns="http://www.w3.org/2000/svg" viewBox="0 0 184.95 91.15">
  <defs>
    <style>
      .cls-1 {
        fill: #547967;
      }

      .cls-1, .cls-2 {
        stroke-width: 0px;
      }

      .cls-2 {
        fill: #6eb987;
      }
    </style>
  </defs>
  <g id="Layer_1-2" data-name="Layer 1">
    <g>
      <path class="cls-2" d="m182.41,32.28l-.39,11.05c.02,1.09-.54,2.1-1.47,2.67l-8.56,5.59c-.28.18-.63-.08-.54-.4,1.1-4.27-.56-17.44-.56-17.44l-3.41-.1c-.44-.01-.61-.58-.26-.83l9.47-6.83s5.78.64,5.71,6.3"/>
      <path class="cls-2" d="m151.85,45.1c-.09-.04-.16.08-.08.13,2.65,1.85,9.53,6.64,11.94,8.03,3.01,1.73,5.63,1.75,6.12-2.39h0s.29-5.83.29-5.83c.01-.24-.3-.35-.44-.15-1.38,2-5.99,6.33-17.84.21"/>
      <path class="cls-2" d="m157.25,5.81l9.68-5.35c.92-.57,2.08-.62,3.04-.11l9.2,4.47c.3.15.26.58-.06.67-4.23,1.25-14.68,9.44-14.68,9.44l1.67,2.98c.21.38-.18.82-.58.65l-10.73-4.61s-2.42-5.28,2.47-8.13"/>
      <path class="cls-2" d="m183.95,25.44c0,.1.15.1.16,0,.23-3.22.8-11.59.75-14.37-.06-3.47-1.39-5.73-5.2-4.02,0,0,0,0,0,0l-5.14,2.74c-.22.12-.15.44.1.45,2.42.16,8.51,1.88,9.34,15.2"/>
      <path class="cls-2" d="m145.16,41.72l-9.06-6.34c-.92-.58-1.47-1.6-1.44-2.68l-.03-10.23c0-.33.4-.48.63-.24,2.98,3.25,14.93,9.03,14.93,9.03l1.94-2.81c.25-.36.82-.2.84.24l.57,11.67s-3.68,4.5-8.39,1.36"/>
      <path class="cls-2" d="m151.05,9.1c.08-.05.02-.18-.07-.14-2.99,1.21-10.76,4.38-13.24,5.65-3.09,1.58-4.53,3.76-1.33,6.44,0,0,0,0,0,0l4.72,3.42c.2.14.46-.06.36-.29-.93-2.25-2.05-8.47,9.54-15.07"/>
      <path class="cls-1" d="m1.22,32.27h15.41l.49,3.76h-6.23v18.33h-4.65v-18.33H0v-4.11c.24.13.61.36,1.22.36m120.98,5.96c-1.99,0-4.16.95-6.21,2.69l-.4-2.23h-3.58v15.31h4.59v-10.44c2.05-.67,3.4-1.07,4.68-1.07h1.26l.46-4.26h-.8Zm-18.64,6.89h-4.35c.12-2.91.86-3.52,3.15-3.52,1.99,0,2.63.49,2.63,1.93,0,.86-.18,1.59-1.44,1.59m5.94-1.53c-.03-3.52-2.05-5.36-7.29-5.36-5.54,0-7.77,2.05-7.77,8.11,0,5.66,2.17,8.02,7.96,8.02,2.2,0,4.9-.28,6.7-1.13l-.46-2.88c-2.08.21-4.32.34-5.69.34-2.33,0-3.37-.52-3.64-2.82h5.54c3.31,0,4.65-1.5,4.65-4.28m-22.86,1.53h-4.35c.12-2.91.86-3.52,3.15-3.52,1.99,0,2.63.49,2.63,1.93,0,.86-.18,1.59-1.44,1.59m5.94-1.53c-.03-3.52-2.05-5.36-7.28-5.36-5.54,0-7.77,2.05-7.77,8.11,0,5.66,2.17,8.02,7.96,8.02,2.2,0,4.9-.28,6.7-1.13l-.46-2.88c-2.08.21-4.32.34-5.69.34-2.33,0-3.37-.52-3.64-2.82h5.54c3.31,0,4.65-1.5,4.65-4.28m-23.1,5.02c-.18.89-.24,1.68-.37,2.54h-.37c-.12-.86-.28-1.68-.43-2.54l-1.53-8.54c-.15-.86-.77-1.38-1.62-1.38h-3.21c-.86,0-1.44.52-1.59,1.35l-1.56,8.57c-.15.86-.28,1.68-.4,2.54h-.4c-.06-.86-.18-1.68-.4-2.54l-2.08-9.92h-4.62l3.77,14.08c.18.77.8,1.22,1.59,1.22h3.55c.86,0,1.5-.55,1.65-1.41l1.53-8.66.37-2.57h.37c.18.86.21,1.71.37,2.57l1.53,8.66c.15.86.83,1.41,1.65,1.41h3.61c.77,0,1.41-.46,1.59-1.22l3.73-14.08h-4.62l-2.11,9.92Zm-25.1.73c-1.32.83-2.05,1.22-3.43,1.22-1.81,0-2.54-.74-2.54-4.41,0-3.86.73-4.5,2.69-4.5,1.26,0,2.17.28,3.28.58v7.1Zm0-12.92c0,1.07.06,2.17.15,3.18-1.44-.95-3.18-1.38-4.99-1.38-3.83,0-5.85,1.84-5.85,7.96,0,5.24,1.5,8.17,5.42,8.17,2.69,0,4.62-1.16,5.85-2.6l.37,2.23h3.64v-21.73h-4.59v4.16Zm-17.87,13.01c-1.29.98-2.76,1.5-3.8,1.5-1.26,0-1.81-.52-1.81-1.59v-.61c0-.86.37-1.44,1.47-1.44h4.13v2.14Zm-1.41-11.2c-2.14,0-5.75.37-7.99.77l.43,3.09c2.45-.15,5.02-.24,6.46-.24,1.96,0,2.51.43,2.51,1.99v.67h-5.45c-2.94,0-4.68,1.44-4.68,3.89v1.56c0,2.85,2.14,4.41,4.99,4.41,2.69,0,4.56-1.44,5.66-2.69l.46,2.33h3.64v-10.13c0-4.32-2.08-5.63-6.03-5.63"/>
      <path class="cls-1" d="m117.7,0h-3.52v3.28h3.52V0Zm1.5,6.55v8.51c0,1.1-.34,1.78-1.04,2.05-.4.15-1.35.24-2.85.24h-20.62c-1.41,0-2.23-.03-2.51-.09-.86-.21-1.35-.77-1.56-1.71l-.28-1.29v-.21c0-2.69-.49-4.56-1.47-5.6-.95-1.04-2.57-1.56-4.87-1.56h-12.52v3.98h12.52c1.19,0,2.02.21,2.42.64.43.46.64,1.32.64,2.6,0,1.13-.21,1.93-.64,2.45-.46.52-1.25.8-2.42.8h-15.7c0,2.2,1.78,3.98,3.98,3.98h11.14c2.69,0,4.47-.49,5.33-1.47l.28-.31.15-.18c.67,1.2,2.1,1.84,4.28,1.94v.02h21.85c2.23,0,4.01-.52,5.36-1.53,1.44-1.1,2.14-2.69,2.14-4.74V6.55h-3.61Zm3.46-6.55h-3.52v3.28h3.52V0Zm-60.75,10.1v7.25h-4.9c-3.28,0-3.24-7.25,1.5-7.25h3.4Zm-8.6,10.25c.8.67,2.17,1.01,4.1,1.01h4.5v1.41c0,.98-.28,1.71-.86,2.2-.58.49-5.17.73-6.18.73l1.8,3.64c2.76,0,6.83-1.01,7.78-1.77.95-.77,1.41-2.23,1.41-4.35V6.64h-7.53c-7.87,0-8.79,10.62-5.02,13.71m-12.96,7.62h3.52v-3.28h-3.52v3.28Zm4.96,0h3.52v-3.28h-3.52v3.28Zm-.14-12.92c0,1.1-.34,1.78-1.04,2.05-.4.15-1.35.24-2.85.24H9.4V6.58h-3.95v15.86c0,1.04-.18,1.81-.58,2.26-.4.46-1.07.7-2.05.7-1.38,0-2.23-.12-2.63-.37l-.18-.09v3.52c.77.15,1.74.25,2.88.25,2.33,0,4.01-.43,5.02-1.29,1.01-.89,1.5-2.23,1.5-4.07v-2.02h31.88c2.23,0,4.01-.52,5.36-1.53,1.44-1.1,2.14-2.69,2.14-4.74V6.55h-3.61v8.51Z"/>
      <g>
        <rect class="cls-1" x="3.77" y="67.43" width="1.25" height="1.16"/>
        <path class="cls-1" d="m8.42,72.7H2.12c-.35,0-.61-.1-.78-.3-.16-.21-.25-.49-.25-.85,0-.42.09-.74.27-.93.19-.21.46-.3.82-.3v-1.36c-.79,0-1.33.13-1.61.4-.38.36-.57,1.12-.57,2.27,0,.98.13,1.64.4,1.99.27.34.79.51,1.54.51h7.72v-5.25h-1.25v3.83Z"/>
        <rect class="cls-1" x="5.53" y="67.43" width="1.25" height="1.16"/>
        <path class="cls-1" d="m24.2,71.89c0,.39-.12.63-.37.73-.14.05-.48.09-1.01.09h-.78s-2.91,0-2.91,0h-6.26c-.31-.04-.52-.11-.64-.19-.19-.12-.28-.34-.28-.63v-5.83h-1.4v6.15c0,.65.17,1.13.53,1.45.33.28.85.43,1.57.45h0s.18,0,.18,0c0,0,.02,0,.02,0h.23s2.48,0,2.48,0h5.83s1.44,0,1.44,0c.79,0,1.42-.19,1.9-.54.51-.39.76-.96.76-1.69v-3.02h-1.28v3.02Z"/>
        <rect class="cls-1" x="21.98" y="75.32" width="1.25" height="1.16"/>
        <rect class="cls-1" x="23.74" y="75.32" width="1.25" height="1.16"/>
        <rect class="cls-1" x="39.85" y="66.54" width="1.25" height="1.16"/>
        <rect class="cls-1" x="44.88" y="66.55" width="1.25" height="1.16"/>
        <path class="cls-1" d="m57,71.89c0,.29-.09.51-.27.63-.12.08-.34.14-.65.19h-8.59c-.49,0-.81-.03-.94-.09-.25-.1-.37-.35-.37-.73v-3.02h-1.38v3.02c0,.38-.12.63-.37.73-.14.05-.46.09-.95.09h-.5c.05-.24.09-.51.09-.82v-.74c0-.85-.2-1.43-.6-1.77-.4-.34-1.05-.51-1.97-.51s-1.52.17-1.94.52c-.4.34-.6.92-.6,1.76v.74c0,.3.03.58.09.82h-.2s-2.91,0-2.91,0h-6.26c-.31-.04-.52-.11-.64-.19-.19-.12-.28-.34-.28-.63v-5.83h-1.4v6.15c0,.65.17,1.13.53,1.45.33.28.85.43,1.57.45h0s.18,0,.18,0c0,0,.02,0,.02,0h.23s2.48,0,2.48,0h5.83s6.65,0,6.65,0v-.02c.69-.06,1.23-.29,1.63-.67.43.41.98.64,1.64.69h0s.26,0,.26,0c0,0,0,0,.01,0h.16s2.48,0,2.48,0h5.83s.23,0,.23,0c.01,0,.02,0,.03,0h.39v-.02c.61-.05,1.06-.19,1.36-.44.36-.32.53-.79.53-1.45v-6.15h-1.4v5.83Zm-15.36-.02c0,.4-.11.7-.33.88-.19.13-.46.2-.83.2-.75,0-1.12-.36-1.12-1.08v-.7c0-.76.38-1.14,1.14-1.14.39,0,.67.09.86.25.19.17.27.47.27.89v.7Z"/>
        <rect class="cls-1" x="59.27" y="66.06" width="1.4" height="8.06"/>
        <rect class="cls-1" x="66.73" y="66.54" width="1.25" height="1.16"/>
        <rect class="cls-1" x="64.97" y="66.54" width="1.25" height="1.16"/>
        <path class="cls-1" d="m68.46,69.34c-.4-.32-1.03-.48-1.91-.48s-1.5.16-1.9.49c-.42.36-.64.94-.64,1.75v.75c0,.84.2,1.42.6,1.76.4.34,1.05.51,1.98.51s1.52-.17,1.92-.51c.4-.34.61-.92.61-1.76v-.75c0-.83-.22-1.41-.65-1.76Zm-.76,2.48c0,.77-.38,1.15-1.15,1.15-.39,0-.67-.09-.86-.26-.19-.17-.27-.47-.27-.89v-.7c0-.4.11-.7.34-.87.19-.14.46-.21.83-.21.75,0,1.12.36,1.12,1.08v.7Z"/>
        <path class="cls-1" d="m71.48,74.51c0,.37-.07.64-.21.8-.14.16-.38.25-.73.25-.49,0-.79-.04-.93-.13l-.07-.03v1.25c.27.05.62.09,1.02.09.83,0,1.42-.15,1.78-.46.36-.32.53-.79.53-1.45v-5.96h-1.4v5.63Z"/>
        <rect class="cls-1" x="73.75" y="66.06" width="1.4" height="8.06"/>
        <path class="cls-1" d="m81.59,68.99h-4.44v1.41h4.44c.42,0,.72.08.87.23.15.16.23.47.23.92,0,.4-.08.69-.23.87-.16.18-.45.28-.87.28h-5.57v1.41h5.57c.86,0,1.46-.21,1.79-.63.32-.38.47-1.03.47-1.96s-.17-1.62-.52-1.99c-.34-.37-.92-.55-1.74-.55Z"/>
        <path class="cls-1" d="m87.11,71.95c0,.24-.09.44-.26.59l-.78-4.87h-1.35l.82,5.05c-.16-.05-.3-.14-.4-.25v1.45c.45.19.96.26,1.51.21.56-.05.99-.22,1.29-.48.34-.29.5-.76.5-1.38v-6.19h-1.33v5.88Z"/>
        <path class="cls-1" d="m86.33,75.68c-.24-.19-.32-.35-.21-.48.05-.04.23-.08.58-.08v-.41h-.48c-.4,0-.61.16-.69.49-.08.33.06.55.39.69-.17,0-.31.05-.43.16l.13.45c.2-.12.63-.15,1.24-.13l.05-.33-.25-.16c-.15-.08-.23-.15-.32-.2Z"/>
        <rect class="cls-1" x="97.43" y="77.68" width="1.25" height="1.16"/>
        <rect class="cls-1" x="95.67" y="77.68" width="1.25" height="1.16"/>
        <rect class="cls-1" x="115.82" y="75.32" width="1.25" height="1.16"/>
        <rect class="cls-1" x="123.34" y="66.54" width="1.25" height="1.16"/>
        <path class="cls-1" d="m125.65,69.51l-3.97-.57c-.21-.03-.4-.04-.59-.04-.12,0-.23.01-.34.02v-2.86h-1.4v6.64h-.81c-.54,0-.87-.03-1-.09-.25-.1-.38-.34-.38-.73v-3.02h-1.37v3.02c0,.39-.13.63-.38.73-.13.05-.45.08-.94.09h-11.83s-4.73,0-4.73,0v1.41h2.57c.26,0,.4.11.41.27.01.12,0,.26-.05.42-.04.12-.11.23-.21.32-.16.15-.42.23-.76.23h-5.98c-.36,0-.62-.1-.78-.31-.17-.21-.26-.49-.26-.85,0-.42.1-.74.28-.94.18-.2.46-.29.8-.29v-1.35c-.78,0-1.32.13-1.6.39-.38.36-.57,1.12-.57,2.26,0,.98.14,1.64.41,1.98.27.34.78.51,1.53.51h6.48c.69,0,1.17-.12,1.46-.36.28-.24.49-.68.54-1.33l.03-.38v-.59h.85s2.47,0,2.47,0h8.74s.11,0,.11,0c0,0,.01,0,.02,0h.53v-.03c.64-.08,1.15-.29,1.53-.66.43.41,1.01.64,1.75.69h0s.33.01.33.01c0,0,0,0,0,0h.11s6.54,0,6.54,0c.77,0,1.29-.19,1.62-.55.32-.36.49-.95.49-1.75s-.12-1.35-.37-1.68c-.23-.33-.66-.53-1.29-.62Zm.52,2.29c0,.6-.35.9-1.03.9h-4.38l.05-1.6c.01-.33.09-.53.21-.61.13-.09.38-.13.75-.13l3.48.52c.62.1.92.33.92.75v.16Z"/>
        <path class="cls-1" d="m141.01,71.89c0,.39-.12.63-.37.73-.14.05-.45.08-.94.09h-6s-.32,0-.32,0v-3.81h-2.67c-2.79,0-3.12,3.77-1.78,4.87.28.24.77.36,1.46.36h1.6v.5c0,.35-.1.61-.3.78-.21.17-1.84.26-2.2.26l.64,1.29c.98,0,2.43-.36,2.76-.63.34-.27.5-.79.5-1.54v-.67h.76s2.48,0,2.48,0h2.91s.11,0,.11,0c0,0,0,0,0,0h.54v-.03c.54-.07,1-.24,1.36-.51.51-.39.76-.96.76-1.69v-3.02h-1.28v3.02Zm-9.04.82h-1.74c-1.16,0-1.15-2.58.53-2.58h1.21v2.58Z"/>
        <rect class="cls-1" x="140.26" y="75.32" width="1.25" height="1.16"/>
        <path class="cls-1" d="m144.01,64.4c-.27-.22-.36-.39-.24-.53.05-.04.26-.09.65-.09v-.46h-.54c-.45,0-.68.17-.77.54-.09.37.07.62.44.77-.2,0-.35.05-.48.17l.14.5c.23-.13.71-.16,1.39-.14l.05-.37-.28-.17c-.16-.09-.26-.16-.36-.23Z"/>
        <rect class="cls-1" x="143.17" y="66.07" width="1.4" height="8.06"/>
        <rect class="cls-1" x="150.41" y="66.54" width="1.25" height="1.16"/>
        <rect class="cls-1" x="148.55" y="66.54" width="1.25" height="1.16"/>
        <rect class="cls-1" x="179.68" y="63.59" width="1.25" height="1.16"/>
        <rect class="cls-1" x="180.61" y="65.37" width="1.25" height="1.16"/>
        <rect class="cls-1" x="178.75" y="65.37" width="1.25" height="1.16"/>
        <path class="cls-1" d="m164.53,70.27l-2.02-1.31c-.17-.11-.29-.22-.37-.34-.08-.14-.11-.28-.09-.44.02-.23.13-.4.29-.51.12-.1.38-.16.79-.19l2.23-.14v-1.26l-2.98.15c-.61.03-1.05.19-1.33.5-.29.34-.45.9-.45,1.69,0,.4.09.72.25.95.14.2.48.46,1,.78l1.74,1.08c.15.1.25.21.29.33.03.11.05.29.05.54,0,.4-.34.6-1,.6h-3.1s-2.26,0-2.26,0h-2.21s-2.08,0-2.08,0h-.01c-.07,0-.11,0-.14,0-.03-.09-.05-.16-.06-.24l-.4-2.19c-.12-.67-.29-1.06-.56-1.26-.36-.28-.9-.41-1.64-.41-.86,0-1.47.14-1.87.42-.35.25-.76.77-.74,1.83v1.11c0,.26.02.63.09.89.05.21.17.43.34.64.22.26.46.42.73.51.25.09.61.13,1.13.13h5.22s1.56,0,1.56,0h2.91s3.77,0,3.77,0c.63,0,1.1-.16,1.39-.5.29-.33.45-.88.45-1.66,0-.49-.05-.83-.15-1.01-.11-.18-.37-.4-.78-.67Zm-14.25,2.44c-.56,0-.77-.12-.84-.18-.12-.12-.19-.28-.19-.61v-1.02c0-.64.25-.79.33-.85.11-.07.38-.18.99-.18.26,0,.45.06.56.17.07.07.17.23.23.59l.37,2.09h-1.46Z"/>
        <path class="cls-1" d="m183.5,68.27v3.41c0,.28-.05.64-.27.83-.35.29-.81.38-1.4.27-.73-.13-.81-.51-.81-.79v-3.08h-1.4v3.08c0,.28-.08.66-.82.79-.57.11-1.04.02-1.39-.28-.19-.16-.28-.43-.28-.82v-3.41h-1.44v3.54c.01.31.05.58.12.82-.21.05-.47.07-.8.07h-5.45s-.31,0-.31,0v-3.83h-1.4v5.63c0,.37-.07.64-.21.8-.14.16-.38.25-.73.25-.49,0-.79-.04-.94-.13l-.07-.03v1.25c.27.05.62.09,1.02.09.83,0,1.42-.15,1.78-.46.36-.32.53-.79.53-1.45v-.72h.75s1.94,0,1.94,0h.03s2.5,0,2.5,0h.49l.54-.02c.4-.03.73-.09.98-.2.09-.03.17-.07.24-.11.36.19.82.3,1.39.33.64.02,1.17-.06,1.61-.25.22-.09.42-.23.59-.41.18.18.38.32.6.41.41.17.88.26,1.4.26.1,0,.2,0,.31,0,.72-.04,1.26-.23,1.65-.57.45-.39.67-.97.67-1.74v-3.54s-1.44,0-1.44,0Z"/>
      </g>
      <path class="cls-1" d="m3.07,83.4c-.05.21-.09.44-.16.64l-.56,2.09h1.69l-.57-2.09c-.06-.2-.11-.43-.14-.64h-.26Zm.84-1.13c.25,0,.45.15.53.39l1.97,6.42h-1.54l-.49-1.79h-2.35l-.5,1.79H0l1.97-6.42c.08-.24.27-.39.53-.39h1.42Z"/>
      <path class="cls-1" d="m8.38,85.66v2.37c.33.08.71.11.99.1.66-.02.91-.35.91-1.51,0-1.05-.15-1.37-.87-1.37-.39,0-.67.17-1.03.42m0-1.94c0,.4-.03.79-.13,1.15.47-.48,1.09-.8,1.73-.8,1.25,0,1.78.72,1.78,2.53,0,1.5-.43,2.6-2.37,2.6-.69,0-1.88-.12-2.48-.37v-6.66h1.47v1.55Z"/>
      <path class="cls-1" d="m16.17,89.08l-.11-.67c-.68.55-1.31.8-2.01.8-.91,0-1.37-.45-1.37-1.35v-3.64h1.46v3.19c0,.43.13.57.53.57.35,0,.69-.14,1.22-.4v-3.37h1.45v4.87h-1.16Z"/>
      <path class="cls-1" d="m22.17,87.97c.35,0,.73,0,1.15,0,1.02,0,1.32-.52,1.32-2.31s-.3-2.34-1.32-2.33h-1.15v4.62Zm4.05-2.3c0,2.7-.76,3.49-2.9,3.49-1.02,0-1.87-.04-2.65-.09v-6.81c.78-.05,1.61-.09,2.65-.09,2.14,0,2.9.8,2.9,3.49"/>
      <path class="cls-1" d="m28.69,83.86c0,.37-.04.73-.09,1.02.65-.52,1.33-.81,1.99-.81.89,0,1.36.48,1.36,1.35v3.66h-1.45v-3.2c0-.45-.12-.57-.48-.57-.39,0-.78.14-1.35.45v3.33h-1.46v-6.91h1.47v1.68Z"/>
      <path class="cls-1" d="m34.73,86.95c-.35,0-.47.18-.47.46v.2c0,.34.18.51.57.51.33,0,.8-.17,1.21-.48v-.68h-1.31Zm2.78-1.09v3.22h-1.16l-.15-.74c-.35.4-.94.86-1.8.86-.91,0-1.59-.5-1.59-1.4v-.5c0-.78.55-1.24,1.49-1.24h1.73v-.21c0-.5-.18-.63-.8-.63-.46,0-1.27.03-2.05.08l-.14-.98c.71-.13,1.86-.24,2.54-.24,1.26,0,1.92.42,1.92,1.79"/>
      <path class="cls-1" d="m40.03,85.66v2.37c.33.08.71.11.99.1.66-.02.91-.35.91-1.51,0-1.05-.15-1.37-.87-1.37-.39,0-.67.17-1.03.42m0-1.94c0,.4-.03.79-.13,1.15.47-.48,1.09-.8,1.73-.8,1.25,0,1.78.72,1.78,2.53,0,1.5-.43,2.6-2.37,2.6-.69,0-1.88-.12-2.48-.37v-6.66h1.47v1.55Z"/>
      <path class="cls-1" d="m44.4,84.22h1.45v4.87h-1.45v-4.87Zm1.05-2.16c.28,0,.42.16.42.43v.54c0,.28-.14.42-.42.42h-.65c-.29,0-.43-.14-.43-.42v-.54c0-.27.14-.43.43-.43h.65Z"/>
      <path class="cls-1" d="m56.81,88.66c-.04.25-.27.42-.55.42h-1.44c-.27,0-.5-.17-.54-.43l-.74-4.45c-.05-.29-.1-.57-.13-.87h-.18c-.04.29-.07.58-.12.88l-.73,4.44c-.04.26-.27.43-.54.43h-1.44c-.27,0-.51-.17-.55-.42l-1.08-6.39h1.55l.66,4.73c.04.29.07.62.09.98h.19c.04-.32.1-.68.15-.98l.74-4.27c.05-.27.24-.46.53-.46h1.3c.28,0,.48.18.53.46l.73,4.28c.05.31.11.67.14.97h.21c.02-.31.05-.67.09-.96l.67-4.75h1.53l-1.07,6.39Z"/>
      <path class="cls-1" d="m60.34,86.95c-.35,0-.47.18-.47.46v.2c0,.34.18.51.57.51.33,0,.8-.17,1.21-.48v-.68h-1.31Zm2.78-1.09v3.22h-1.16l-.15-.74c-.35.4-.94.86-1.8.86-.91,0-1.59-.5-1.59-1.4v-.5c0-.78.55-1.24,1.49-1.24h1.73v-.21c0-.5-.18-.63-.8-.63-.46,0-1.27.03-2.05.08l-.14-.98c.71-.13,1.86-.24,2.54-.24,1.26,0,1.92.42,1.92,1.79"/>
      <path class="cls-1" d="m68.29,84.27l-.1.93c-.62-.01-1.26-.02-1.88-.02-.76,0-.93,0-.93.33,0,.29.17.3.64.43l1.25.34c.83.22,1.2.57,1.2,1.42,0,1.21-.66,1.49-2.23,1.49-.37,0-1.25,0-2.18-.17l.09-.95c.35.03,1.03.03,1.68.03,1,0,1.23-.06,1.23-.37s-.2-.33-.69-.46l-1.22-.32c-.92-.25-1.18-.71-1.18-1.48,0-1.02.54-1.41,2.07-1.4.7,0,1.64.09,2.25.19"/>
      <path class="cls-1" d="m72.58,84.22v.97h-1.35v2.31c0,.36.14.49.54.49h.62l.16,1.02c-.37.13-1.03.19-1.37.19-.89,0-1.39-.52-1.39-1.4v-2.61h-.87v-.92l.87-.05v-1.36h1.45v1.36h1.35Z"/>
      <path class="cls-1" d="m74.62,86.26h1.38c.4,0,.46-.23.46-.51,0-.46-.2-.61-.84-.61-.73,0-.96.19-1,1.12m3.27-.49c0,.89-.43,1.36-1.48,1.36h-1.76c.09.73.42.9,1.16.9.44,0,1.15-.04,1.81-.11l.15.92c-.57.27-1.43.36-2.13.36-1.84,0-2.53-.75-2.53-2.55,0-1.93.71-2.58,2.47-2.58,1.66,0,2.31.58,2.32,1.7"/>
      <path class="cls-1" d="m87.9,82.27c.36,0,.54.19.55.56l.27,6.25h-1.42l-.23-5.64h-.17l-1.02,4.22c-.09.32-.28.49-.61.49h-.99c-.33,0-.54-.17-.61-.49l-1.03-4.22h-.17l-.2,5.64h-1.42l.24-6.25c0-.37.2-.56.56-.56h1.45c.33,0,.52.17.59.48l.83,3.41c.09.32.14.64.18.95h.13c.06-.31.1-.63.18-.95l.82-3.41c.09-.31.28-.48.61-.48h1.46Z"/>
      <path class="cls-1" d="m91.47,86.95c-.35,0-.47.18-.47.46v.2c0,.34.18.51.57.51.33,0,.8-.17,1.21-.48v-.68h-1.31Zm2.78-1.09v3.22h-1.16l-.15-.74c-.35.4-.94.86-1.8.86-.91,0-1.59-.5-1.59-1.4v-.5c0-.78.55-1.24,1.49-1.24h1.73v-.21c0-.5-.18-.63-.8-.63-.46,0-1.27.03-2.05.08l-.14-.98c.71-.13,1.86-.24,2.54-.24,1.26,0,1.92.42,1.92,1.79"/>
      <path class="cls-1" d="m100.08,85.42v3.66h-1.45v-3.2c0-.45-.12-.57-.48-.57-.39,0-.78.17-1.35.45v3.33h-1.46v-4.87h1.19l.11.72c.68-.56,1.39-.87,2.08-.87.89,0,1.36.48,1.36,1.35"/>
      <path class="cls-1" d="m170.65,86.95c-.35,0-.47.18-.47.46v.2c0,.34.18.51.57.51.33,0,.8-.17,1.21-.48v-.68h-1.31Zm2.78-1.09v3.22h-1.16l-.15-.74c-.35.4-.94.86-1.8.86-.91,0-1.59-.5-1.59-1.4v-.5c0-.78.55-1.24,1.49-1.24h1.73v-.21c0-.5-.18-.63-.8-.63-.46,0-1.27.03-2.05.08l-.14-.98c.71-.13,1.86-.24,2.54-.24,1.26,0,1.92.42,1.92,1.79"/>
      <path class="cls-1" d="m179.25,85.42v3.66h-1.45v-3.2c0-.45-.12-.57-.48-.57-.39,0-.78.17-1.35.45v3.33h-1.46v-4.87h1.19l.11.72c.68-.56,1.39-.87,2.08-.87.89,0,1.36.48,1.36,1.35"/>
      <path class="cls-1" d="m102.84,86.95c-.35,0-.47.18-.47.46v.2c0,.34.18.51.57.51.33,0,.8-.17,1.21-.48v-.68h-1.31Zm2.78-1.09v3.22h-1.16l-.15-.74c-.35.4-.94.86-1.8.86-.91,0-1.59-.5-1.59-1.4v-.5c0-.78.55-1.24,1.49-1.24h1.73v-.21c0-.5-.18-.63-.8-.63-.46,0-1.27.03-2.05.08l-.14-.98c.71-.13,1.86-.24,2.54-.24,1.26,0,1.92.42,1.92,1.79"/>
      <path class="cls-1" d="m107.89,85.64c0,.47.22.63.94.63s.94-.17.94-.63-.22-.62-.94-.62-.94.14-.94.62m.16,3.13c-.21.18-.32.31-.32.55,0,.49.22.56,1.16.56s1.19-.09,1.19-.54c0-.35-.17-.38-.8-.45l-1.23-.13Zm2.07-4.55h1.57l-.07.64-.61.08c.09.18.13.42.13.7,0,1.11-.57,1.56-2.3,1.56-.31,0-.59-.02-.84-.05-.13.2-.09.54.28.58l1.77.2c1.02.12,1.41.57,1.41,1.45,0,1.27-.68,1.59-2.56,1.59-2.02,0-2.57-.37-2.57-1.45,0-.51.21-.8.78-1.06-.46-.43-.32-1.23.16-1.5-.52-.24-.72-.66-.72-1.31,0-1.14.58-1.58,2.3-1.58.54,0,.95.05,1.28.15"/>
      <path class="cls-1" d="m113.66,86.26h1.38c.4,0,.46-.23.46-.51,0-.46-.2-.61-.84-.61-.73,0-.96.19-1,1.12m3.27-.49c0,.89-.43,1.36-1.48,1.36h-1.76c.09.73.42.9,1.16.9.44,0,1.15-.04,1.81-.11l.15.92c-.57.27-1.43.36-2.13.36-1.84,0-2.53-.75-2.53-2.55,0-1.93.71-2.58,2.47-2.58,1.66,0,2.31.58,2.32,1.7"/>
      <path class="cls-1" d="m125.3,85.42v3.66h-1.45v-3.2c0-.41-.12-.57-.52-.57-.32,0-.55.11-1.08.44v3.34h-1.4v-3.2c0-.44-.17-.57-.53-.57-.32,0-.55.1-1.08.43v3.35h-1.45v-4.87h1.17l.1.71c.61-.56,1.17-.86,1.86-.86.65,0,1.07.27,1.26.8.57-.54,1.12-.8,1.77-.8.89,0,1.35.48,1.35,1.35"/>
      <path class="cls-1" d="m127.7,86.26h1.38c.4,0,.46-.23.46-.51,0-.46-.2-.61-.84-.61-.73,0-.96.19-1,1.12m3.27-.49c0,.89-.43,1.36-1.48,1.36h-1.76c.09.73.42.9,1.16.9.44,0,1.15-.04,1.81-.11l.15.92c-.57.27-1.43.36-2.13.36-1.84,0-2.53-.75-2.53-2.55,0-1.93.71-2.58,2.47-2.58,1.66,0,2.31.58,2.32,1.7"/>
      <path class="cls-1" d="m136.58,85.42v3.66h-1.45v-3.2c0-.45-.12-.57-.48-.57-.39,0-.78.17-1.35.45v3.33h-1.46v-4.87h1.19l.11.72c.68-.56,1.39-.87,2.08-.87.89,0,1.36.48,1.36,1.35"/>
      <path class="cls-1" d="m140.93,84.22v.97h-1.35v2.31c0,.36.14.49.54.49h.62l.16,1.02c-.37.13-1.03.19-1.37.19-.89,0-1.39-.52-1.39-1.4v-2.61h-.87v-.92l.87-.05v-1.36h1.45v1.36h1.35Z"/>
      <path class="cls-1" d="m161.05,84.07c-.65,0-1.2.26-1.77.8-.19-.53-.6-.8-1.26-.8-.69,0-1.25.29-1.86.86l-.1-.71h-1.17v4.87h1.45v-3.35c.53-.33.76-.43,1.08-.43.36,0,.53.14.53.57v3.2h1.4v-3.34c.53-.33.76-.44,1.08-.44.4,0,.52.17.52.57v3.2h1.45v-3.66c0-.88-.47-1.35-1.35-1.35Z"/>
      <path class="cls-1" d="m183.7,84.41l-1.3,3.47-.03.08c-.03.08-.06.17-.09.26-.04-.12-.08-.23-.12-.34l-1.32-3.47h-1.23l1.84,4.53c.07.18.22.29.41.3-.24.58-.63.91-1.32,1.11l-.13.04.13.78h.13c1.04-.05,1.78-.63,2.24-1.77l2.02-4.98h-1.24Z"/>
      <path class="cls-1" d="m166.27,84.3c-.66,0-1.36.26-1.89.68l-.05-.62h-1.01v6.79h1.17v-1.51c0-.23,0-.44-.01-.67.51.24,1.05.36,1.63.36,1.39,0,1.98-.75,1.98-2.5s-.59-2.54-1.81-2.54Zm.66,2.54c0,1.31-.3,1.52-1.03,1.52-.46,0-.85-.09-1.41-.24v-2.21c.67-.46,1.07-.63,1.51-.63.6,0,.93.25.93,1.56Z"/>
      <path class="cls-1" d="m151.6,84.3c-1.74,0-2.42.71-2.42,2.52s.68,2.53,2.42,2.53,2.43-.71,2.43-2.53-.68-2.52-2.43-2.52Zm0,.96c.98,0,1.25.33,1.25,1.56s-.27,1.57-1.25,1.57-1.24-.34-1.24-1.57c0-1.34.37-1.56,1.24-1.56Z"/>
      <path class="cls-1" d="m148.46,82.55l-.12,1.11c-.63-.05-1.04-.06-1.88-.06-.96,0-1.26.5-1.26,2.18s.3,2.18,1.26,2.18c.89,0,1.42-.01,2.01-.09l.13,1.1c-.62.19-1.17.27-2.14.27-2.06,0-2.81-.91-2.81-3.45s.74-3.46,2.81-3.46c.94,0,1.39.08,2,.23"/>
    </g>
  </g>
</svg>