<?xml version="1.0" encoding="UTF-8"?>
<svg id="Layer_2" data-name="Layer 2" xmlns="http://www.w3.org/2000/svg" viewBox="0 0 278 73">
  <defs>
    <style>
      .cls-1 {
        fill: #12121b;
      }

      .cls-1, .cls-2 {
        fill-rule: evenodd;
        stroke-width: 0px;
      }

      .cls-2 {
        fill: #169f9f;
      }
    </style>
  </defs>
  <g id="Layer_1-2" data-name="Layer 1">
    <g>
      <path class="cls-1" d="m267.84,5.84c0,2.12-1.71,3.84-3.81,3.84s-3.82-1.72-3.82-3.84,1.71-3.84,3.82-3.84,3.81,1.72,3.81,3.84Zm10.16,0c0,2.12-1.7,3.84-3.81,3.84s-3.81-1.72-3.81-3.84,1.71-3.84,3.81-3.84,3.81,1.72,3.81,3.84Zm-100.37,20.31c.61-.61,1.09-1.33,1.43-2.16.34-.83.51-1.75.51-2.73s-.16-1.91-.49-2.76c-.33-.85-.79-1.58-1.38-2.2-.6-.62-1.31-1.11-2.12-1.46-.82-.36-1.71-.53-2.7-.53s-1.82.18-2.6.55c-.79.36-1.47.86-2.04,1.48s-1.02,1.36-1.34,2.2c-.33.85-.49,1.75-.49,2.71s.16,1.86.49,2.69c.32.83.78,1.55,1.36,2.16.59.61,1.27,1.09,2.06,1.44.78.36,1.64.53,2.56.53s1.8-.17,2.61-.51c.81-.33,1.53-.81,2.14-1.41Zm93.39-2.73v-8.3c0-.62.49-1.14,1.1-1.14h3.51c.61,0,1.1.51,1.1,1.14v13.08c0,.63-.49,1.15-1.1,1.15h-93.12c-.3.37-.61.73-.95,1.07-1.13,1.13-2.47,2.02-3.95,2.63-1.48.62-3.07.94-4.72.94s-3.32-.34-4.81-1.02c-1.44-.65-2.73-1.55-3.82-2.69-1.12-1.16-2-2.55-2.61-4.11-.6-1.54-.91-3.19-.91-4.91,0-.19.01-.37.02-.55,0-.06,0-.12.01-.19-1.26.19-2.21.73-2.83,1.62-.46.65-.78,1.46-.96,2.41-.17.96-.26,1.99-.26,3.1v5.21c0,.63-.49,1.14-1.1,1.14h-3.51c-.61,0-1.1-.51-1.1-1.14v-5.3c0-2.2.25-4.1.74-5.71.49-1.61,1.18-3.08,2.28-4.2,2.24-2.28,4.47-2.78,5.09-2.92.63-.14,1.21-.21,1.76-.21h1.64c.46-.82,1.01-1.57,1.63-2.26,1.08-1.17,2.37-2.12,3.82-2.79,1.52-.71,3.18-1.07,4.93-1.07s3.37.33,4.87.99c1.5.65,2.83,1.57,3.95,2.73,1.14,1.19,2.03,2.6,2.65,4.18.59,1.54.9,3.21.9,4.95,0,.73-.07,1.46-.19,2.16h85.96Z"/>
      <path class="cls-1" d="m165.96,69.9v-22.54h8.12c.62,0,1.11-.49,1.11-1.1v-3.16c0-.61-.49-1.1-1.11-1.1h-21.97c-.61,0-1.11.49-1.11,1.1v3.16c0,.61.5,1.1,1.11,1.1h8.12v22.54c0,.61.5,1.1,1.11,1.1h3.51c.61,0,1.11-.49,1.11-1.1Zm25.92-10.68h-8.1l4.05-10.96,4.05,10.96Zm-10,5.16h11.9l2.17,5.9c.16.44.57.72,1.04.72h3.8c.78,0,1.32-.77,1.04-1.49l-10.31-26.8c-.16-.43-.57-.71-1.04-.71h-5.08c-.46,0-.88.28-1.04.71l-10.39,26.8c-.28.72.26,1.49,1.04,1.49h3.63c.47,0,.89-.29,1.05-.72l2.17-5.9Zm89.66,5.52v-19.23l-7.93,19.65c-.16.41-.56.68-1,.68h-3.17c-.44,0-.84-.26-1-.68l-7.93-19.49v19.06c0,.61-.49,1.1-1.09,1.1h-3.14c-.6,0-1.09-.49-1.09-1.1v-26.8c0-.61.49-1.1,1.09-1.1h5.51c.44,0,.83.26,1,.68l8.29,20.26,8.09-20.26c.16-.41.56-.69,1-.69h5.75c.6,0,1.09.49,1.09,1.1v26.8c0,.61-.49,1.1-1.09,1.1h-3.3c-.59,0-1.08-.49-1.08-1.1Zm-39.45-19.23v19.23c0,.61.48,1.1,1.08,1.1h3.3c.6,0,1.09-.49,1.09-1.1v-26.8c0-.61-.49-1.1-1.09-1.1h-5.75c-.44,0-.84.27-1,.69l-8.09,20.26-8.29-20.26c-.17-.41-.57-.68-1-.68h-5.52c-.59,0-1.08.49-1.08,1.1v26.8c0,.61.49,1.1,1.08,1.1h3.14c.6,0,1.09-.49,1.09-1.1v-19.06l7.93,19.49c.16.41.57.68,1,.68h3.17c.44,0,.84-.26,1-.68l7.93-19.65Z"/>
      <path class="cls-2" d="m86.48,15.26l-10.37,5.62.99,3.43c.01.07.04.13.05.21l.42,1.71,11.46-6.21c1.71-.9,6.92-3.62,11.42-3.62,2.04,0,3.66.55,4.96,1.66l5.68,5.68c-5.9,1.46-12.81,7.72-21.35,15.45l-7.43,6.3,1.44,5.86,9.57-8.12c7.84-7.09,15.24-13.8,19.72-14.39.06-.03.35-.09.86-.18.51-.1.78-.14.81-.13v.03c.08.18.14.37.18.55.06.02.11.04.15.06.7,1.04,2.03,1.46,3.22,1.02,1.24-.47,1.95-1.77,1.68-3.06-.01-.06-.03-.11-.04-.18-.01-.04-.03-.08-.04-.12l-.05-.14c-.66-2.38-2.56-4.48-3.5-5.4-.15-.16-.28-.27-.37-.36l-6.75-6.75s-.08-.08-.12-.11c-2.31-2.05-5.2-3.08-8.62-3.08-5.84,0-11.94,3.19-13.98,4.26Zm-75.26-1.18s-.08.08-.12.11l-6.68,6.68c-1.51,1.53-3.94,4.36-4.33,6.84-.02.09-.04.18-.06.26C0,28.1,0,28.24,0,28.36,0,29.63.86,30.76,2.1,31.03c1.24.28,2.48-.3,3.03-1.44.03-.06.08-.13.14-.21.02-.11.04-.23.07-.35.29-.18.96-.27,1.56-.23.08,0,.16.01.25.03,4.45.48,12.16,7.47,19.6,14.21.04.04.08.07.12.1l9.82,7.94,1.46-5.76-7.8-6.32c-8.15-7.38-15.27-13.83-21.16-15.28l5.68-5.67c1.25-1.07,2.83-1.57,4.98-1.57,6.06,0,12.82,3.91,18.33,7.09l4.85,2.63.45-1.76,1.01-3.59-3.66-1.98c-6-3.47-13.46-7.79-20.98-7.79-3.48,0-6.39,1.01-8.63,2.98Zm59.33,9.8c-.41.17-1.03.4-1.73.66l.54,1.9.83,3.35c1.28-.47,2.3-.87,2.53-.96.09-.04.19-.09.29-.13l2.21-1.19-.61-2.45-.84-2.91-3.22,1.74Zm-24.33,1.24l-.64,2.49,2.21,1.2s.1.05.16.08c.91.42,1.78.79,2.61,1.11l.89-3.49.5-1.77c-.53-.21-1.07-.45-1.63-.71l-3.29-1.78-.81,2.88Zm18.19.86c-.21.06-.4.1-.58.14-.61.13-1.2.23-1.79.29-2.52.29-4.95.04-7.63-.78l-.46,1.61-.91,3.6c3.75,1.12,7.27,1.37,10.91.75.33-.06.66-.12.98-.18.55-.11,1.17-.27,1.83-.46.25-.08.5-.16.76-.23l-.86-3.52-.49-1.71c-.62.2-1.22.38-1.74.5Zm-25.13,26.35l-.19.71,4.6,3.72.84-3.06.68-2.67-4.64-3.75-1.28,5.04Zm36.19-1.04l1.42,5.77c.31-.23.64-.47.96-.71.05-.04.09-.07.14-.11l3.54-3.01-1.44-5.86-4.62,3.91Zm-28.43,3.08l-1.14,4.18.96.78c.09.08.19.15.29.21,4.93,3,9.18,4.45,12.99,4.46,0,0,0,0,0,0h.2c4.09-.06,8.72-1.8,14.05-5.25l-1.37-5.58c-4.88,3.41-9.01,5.23-12.31,5.42h-.08s-.02,0-.03,0h-.13s-.04,0-.06,0h-.29c-2.71,0-6.08-1.2-10-3.57l-2.71-2.2-.39,1.53Z"/>
      <path class="cls-2" d="m47.31,0c-1.34,0-2.48.87-2.83,2.19-.34,1.31.21,2.63,1.37,3.28.05.03,1.2.72,2.21,2.26.9,1.38,1.85,3.75,1.28,7.22l-2.78,9.92-6.96,27.35-2.91,10.69c-.52,2.14-1.81,3.62-3.74,4.28-.74.26-1.51.38-2.3.38-1.9,0-3.9-.72-5.65-2.09-5.09-3.98-7.49-8.85-12.27-18.55l-4.67-9.23c-2.13-4.3-3.03-6.73-2.48-8.91l-5.27-1.31c-1.04,4.17.61,8.02,2.89,12.65l4.16,8.19.5,1.01c4.98,10.11,7.73,15.68,13.8,20.43,2.71,2.12,5.86,3.24,8.95,3.25h.14c1.36,0,2.71-.24,3.99-.69,3.66-1.26,6.29-4.23,7.21-8.06l2.91-10.65,6.95-27.34,2.8-9.99c.03-.09.04-.18.06-.26.82-4.79-.36-8.31-1.66-10.58h4.06c6.9,0,7.72,3.11,8.67,6.77l4.02,14,9.3,37.96c.93,3.91,3.56,6.88,7.21,8.16,1.32.46,2.71.69,4.1.69,3.11,0,6.28-1.12,9.01-3.25,6.05-4.73,8.07-8.83,12.95-18.75l5.8-11.48c1.4-2.82,2.39-5.31,2.73-7.68h0s0-.03,0-.04v-.03h0c.24-1.76.11-3.44-.48-5.17,0-.01-.01-.03-.02-.05l-5.13,1.79c.72,2.06.21,4.36-1.96,8.76l-5.25,10.37-.57,1.14c-4.76,9.66-6.36,12.91-11.44,16.88-1.75,1.37-3.74,2.1-5.65,2.1-.79,0-1.57-.13-2.31-.39-1.93-.67-3.21-2.16-3.72-4.31l-9.33-38.09-4.04-14.04c-.98-3.76-2.81-10.76-13.91-10.76h-9.77Z"/>
    </g>
  </g>
</svg>